<svg width="859" height="859" viewBox="0 0 859 859" fill="none" xmlns="http://www.w3.org/2000/svg">
<path d="M429.23 858.46C666.011 858.46 857.96 666.511 857.96 429.73C857.96 192.949 666.011 1 429.23 1C192.449 1 0.5 192.949 0.5 429.73C0.5 666.511 192.449 858.46 429.23 858.46Z" stroke="#7C7C7C" stroke-miterlimit="10"/>
<path d="M429.231 792.365C629.509 792.365 791.866 630.008 791.866 429.73C791.866 229.452 629.509 67.0947 429.231 67.0947C228.953 67.0947 66.5957 229.452 66.5957 429.73C66.5957 630.008 228.953 792.365 429.231 792.365Z" stroke="#7C7C7C" stroke-miterlimit="10"/>
<path d="M429.23 678.1C566.401 678.1 677.6 566.901 677.6 429.73C677.6 292.558 566.401 181.359 429.23 181.359C292.058 181.359 180.859 292.558 180.859 429.73C180.859 566.901 292.058 678.1 429.23 678.1Z" stroke="#7C7C7C" stroke-miterlimit="10"/>
<path d="M429.23 596.953C521.585 596.953 596.453 522.085 596.453 429.73C596.453 337.374 521.585 262.506 429.23 262.506C336.874 262.506 262.006 337.374 262.006 429.73C262.006 522.085 336.874 596.953 429.23 596.953Z" stroke="#7C7C7C" stroke-miterlimit="10"/>
<path d="M534.732 432.547C536.267 374.292 490.288 325.823 432.033 324.287C373.778 322.752 325.308 368.731 323.773 426.986C322.237 485.241 368.217 533.711 426.472 535.246C484.727 536.782 533.196 490.802 534.732 432.547Z" stroke="#7C7C7C" stroke-miterlimit="10"/>
<path d="M416.625 324.317L439.325 386.84" stroke="#7C7C7C" stroke-miterlimit="10"/>
<path d="M417.605 472.412L440.293 534.922" stroke="#7C7C7C" stroke-miterlimit="10"/>
<path d="M323.688 441.222L385.744 418.69" stroke="#7C7C7C" stroke-miterlimit="10"/>
<path d="M471.254 440.484L533.764 417.784" stroke="#7C7C7C" stroke-miterlimit="10"/>
<path d="M346.467 363.919L405.896 391.692" stroke="#7C7C7C" stroke-miterlimit="10"/>
<path d="M451.035 467.56L511.293 495.708" stroke="#7C7C7C" stroke-miterlimit="10"/>
<path d="M362.67 511.821L390.534 452.197" stroke="#7C7C7C" stroke-miterlimit="10"/>
<path d="M466.398 407.017L494.508 346.862" stroke="#7C7C7C" stroke-miterlimit="10"/>
<path d="M473.111 430.922C473.749 406.7 454.631 386.546 430.409 385.908C406.187 385.269 386.033 404.387 385.394 428.61C384.756 452.832 403.874 472.985 428.096 473.624C452.319 474.262 472.472 455.144 473.111 430.922Z" stroke="#7C7C7C" stroke-miterlimit="10"/>
<path d="M569.348 304.926C569.938 282.526 552.258 263.888 529.858 263.298C507.457 262.707 488.82 280.387 488.229 302.788C487.639 325.188 505.319 343.825 527.719 344.416C550.119 345.006 568.757 327.326 569.348 304.926Z" fill="#262626" stroke="#7C7C7C" stroke-miterlimit="10"/>
<path d="M481.566 531.769C482.03 514.142 468.117 499.475 450.49 499.011C432.863 498.546 418.197 512.459 417.732 530.086C417.267 547.713 431.18 562.38 448.807 562.844C466.435 563.309 481.101 549.396 481.566 531.769Z" fill="#262626" stroke="#7C7C7C" stroke-miterlimit="10"/>
<path d="M203.689 479.418C203.938 469.986 196.494 462.138 187.062 461.89C177.63 461.641 169.783 469.086 169.534 478.517C169.286 487.949 176.73 495.796 186.162 496.045C195.593 496.294 203.441 488.849 203.689 479.418Z" fill="#262626" stroke="#7C7C7C" stroke-miterlimit="10"/>
<path d="M685.506 695.402C685.665 689.379 680.911 684.367 674.888 684.208C668.864 684.049 663.853 688.804 663.694 694.827C663.535 700.85 668.289 705.862 674.313 706.021C680.336 706.18 685.348 701.425 685.506 695.402Z" fill="#262626" stroke="#7C7C7C" stroke-miterlimit="10"/>
<path d="M332.476 21.2872C332.77 10.1192 323.955 0.827153 312.787 0.532759C301.619 0.238366 292.327 9.05312 292.033 20.2211C291.739 31.389 300.553 40.681 311.721 40.9754C322.889 41.2698 332.181 32.4551 332.476 21.2872Z" fill="#262626" stroke="#7C7C7C" stroke-miterlimit="10"/>
<path d="M424.775 406.33C425.125 393.048 414.641 381.996 401.358 381.646C388.075 381.295 377.023 391.78 376.673 405.062C376.323 418.345 386.807 429.397 400.09 429.747C413.373 430.097 424.425 419.613 424.775 406.33Z" fill="#262626" stroke="#7C7C7C" stroke-miterlimit="10"/>
</svg>
