<svg width="27" height="27" viewBox="0 0 27 27" fill="none" xmlns="http://www.w3.org/2000/svg">
<path d="M13.0969 2.13791C19.1688 2.13791 24.1085 7.21479 24.1085 13.4553C24.1085 19.6959 19.1688 24.7727 13.0969 24.7727C7.02506 24.7727 2.08013 19.7013 2.08013 13.4607C2.08013 7.2202 7.01979 2.13791 13.0969 2.13791ZM13.0969 0C5.86124 0 0 6.02405 0 13.4607C0 20.8974 5.86124 26.9215 13.0969 26.9215C20.3326 26.9215 26.1939 20.8974 26.1939 13.4607C26.1939 6.02405 20.3274 0 13.0969 0Z" fill="#7C7C7C"/>
<path d="M5.45072 12.6487C5.45072 12.6487 11.9966 9.8884 14.2715 8.91416C15.1405 8.52447 18.0948 7.2796 18.0948 7.2796C18.0948 7.2796 19.4587 6.73295 19.3429 8.059C19.306 8.60565 19.0006 10.5108 18.7004 12.573C18.2475 15.4903 17.7525 18.6782 17.7525 18.6782C17.7525 18.6782 17.6787 19.5713 17.031 19.7282C16.3885 19.8852 15.33 19.1816 15.1405 19.03C14.9877 18.9109 12.302 17.1627 11.3172 16.3076C11.0539 16.0748 10.7485 15.6094 11.3541 15.0627C12.718 13.7799 14.3453 12.1833 15.33 11.1711C15.7829 10.7057 16.2358 9.61778 14.3453 10.9384C11.6595 12.8436 9.01065 14.6351 9.01065 14.6351C9.01065 14.6351 8.40504 15.0248 7.26755 14.673C6.13006 14.3212 4.80825 13.8557 4.80825 13.8557C4.80825 13.8557 3.90247 13.2712 5.45072 12.6487Z" fill="#7C7C7C"/>
</svg>
