<svg width="26" height="27" viewBox="0 0 26 27" fill="none" xmlns="http://www.w3.org/2000/svg">
<path d="M8.49388 13.0943C8.49388 10.6829 10.3934 8.72954 12.7383 8.72954C15.0832 8.72954 16.9826 10.6829 16.9826 13.0943C16.9826 15.5057 15.0832 17.4591 12.7383 17.4591C10.3934 17.4591 8.49388 15.5057 8.49388 13.0943ZM6.20017 13.0943C6.20017 16.8062 9.12874 19.8178 12.7383 19.8178C16.3478 19.8178 19.2763 16.8062 19.2763 13.0943C19.2763 9.38241 16.3478 6.37077 12.7383 6.37077C9.12874 6.37077 6.20017 9.38241 6.20017 13.0943ZM18.0066 6.10225C18.0066 6.97099 18.6927 7.67652 19.5323 7.67652C20.372 7.67652 21.0581 6.97099 21.0581 6.10225C21.0581 5.23351 20.372 4.53325 19.5323 4.53325C18.6927 4.53325 18.0066 5.23878 18.0066 6.10225ZM7.59278 23.7509C6.35377 23.693 5.67794 23.4824 5.22739 23.2981C4.63349 23.0611 4.20854 22.7768 3.76311 22.3188C3.31768 21.8607 3.04121 21.4237 2.81081 20.8129C2.63674 20.3496 2.42682 19.6599 2.3705 18.3805C2.30906 17.001 2.29883 16.5851 2.29883 13.089C2.29883 9.59302 2.31418 9.17707 2.3705 7.79762C2.42682 6.52346 2.63674 5.82847 2.81081 5.36514C3.04121 4.75439 3.31768 4.31738 3.76311 3.85932C4.20854 3.40126 4.63349 3.11694 5.22739 2.88001C5.67794 2.701 6.34865 2.48513 7.59278 2.42721C8.93419 2.36403 9.33866 2.3535 12.7383 2.3535C16.1379 2.3535 16.5423 2.3693 17.8837 2.42721C19.1227 2.48513 19.7986 2.701 20.2491 2.88001C20.843 3.11694 21.268 3.40126 21.7134 3.85932C22.1588 4.31738 22.4353 4.75439 22.6657 5.36514C22.8398 5.82847 23.0497 6.5182 23.106 7.79762C23.1674 9.17707 23.1777 9.59302 23.1777 13.089C23.1777 16.5851 23.1674 17.001 23.106 18.3805C23.0497 19.6546 22.8398 20.3496 22.6657 20.8129C22.4353 21.4237 22.1588 21.8607 21.7134 22.3188C21.268 22.7768 20.843 23.0611 20.2491 23.2981C19.7986 23.4771 19.1279 23.693 17.8837 23.7509C16.5423 23.8141 16.1379 23.8246 12.7383 23.8246C9.33866 23.8246 8.93419 23.8141 7.59278 23.7509ZM7.49038 0.0789765C6.13361 0.142158 5.20691 0.363292 4.39797 0.684463C3.55831 1.01616 2.85177 1.46896 2.14011 2.19555C1.43357 2.92213 0.998376 3.65398 0.670704 4.51746C0.358391 5.34934 0.143357 6.30233 0.0767982 7.69758C0.0153596 9.09283 0 9.54037 0 13.0943C0 16.6483 0.0153596 17.0958 0.0767982 18.491C0.138237 19.8863 0.353271 20.8393 0.670704 21.6712C0.993256 22.5346 1.42845 23.2612 2.14011 23.9931C2.84665 24.7197 3.55831 25.1672 4.39797 25.5042C5.20691 25.8253 6.13361 26.0465 7.49038 26.1149C8.84715 26.1781 9.28234 26.1939 12.7383 26.1939C16.1942 26.1939 16.6294 26.1781 17.9861 26.1149C19.3429 26.0517 20.2696 25.8306 21.0785 25.5042C21.9182 25.1672 22.6247 24.7197 23.3364 23.9931C24.0429 23.2665 24.4781 22.5346 24.8058 21.6712C25.1181 20.8393 25.3383 19.8863 25.3946 18.491C25.456 17.0958 25.4714 16.6483 25.4714 13.0943C25.4714 9.54037 25.456 9.09283 25.3946 7.69758C25.3332 6.30233 25.1181 5.34934 24.8058 4.51746C24.4781 3.65398 24.0429 2.9274 23.3364 2.19555C22.6299 1.46896 21.9182 1.02143 21.0837 0.684463C20.2747 0.363292 19.348 0.136893 17.9912 0.0789765C16.6345 0.0157953 16.1993 0 12.7434 0C9.28746 0 8.85227 0.0157953 7.4955 0.0789765" fill="#7C7C7C"/>
</svg>
