<svg preserveAspectRatio="none" width="100%" height="100%" overflow="visible" style="display: block;" viewBox="0 0 5.56657 6.53353" fill="none" xmlns="http://www.w3.org/2000/svg">
<path id="Vector" d="M3.68657 1.75213L5.41657 1.96323L5.56657 0.622744L0.456574 0L0.416573 0.221654C0.266573 1.04494 0.196574 1.60436 0.0465737 2.9765C-0.0534263 3.87368 0.00657609 4.51753 0.236576 4.96084C0.456576 5.38304 0.836575 5.62581 1.37658 5.69969C2.02658 5.78413 2.47658 5.57303 2.78658 5.05584C2.88658 5.34082 3.03657 5.57303 3.26657 5.67858C3.63657 5.85801 3.83657 5.8369 4.26657 6.11133C4.48657 6.24855 4.64657 6.40687 4.75657 6.53353L4.92657 6.49131L5.06657 5.16139C4.84657 4.84474 4.38658 4.65475 3.73658 4.43309C3.53658 4.31699 3.45657 3.9159 3.51657 3.34593L3.68657 1.76268V1.75213ZM2.43657 3.17705C2.37657 3.72591 2.27657 4.06367 2.13657 4.23255C2.04657 4.3381 1.94657 4.38032 1.79657 4.38032C1.74657 4.38032 1.69658 4.38032 1.64658 4.36976C1.31658 4.32754 1.03657 4.29588 1.16657 3.08205L1.20657 2.69152C1.25657 2.2271 1.30657 1.8049 1.34657 1.46714L2.60658 1.62547L2.43657 3.17705Z" fill="var(--fill-0, #231F20)"/>
</svg>
