<svg preserveAspectRatio="none" width="100%" height="100%" overflow="visible" style="display: block;" viewBox="0 0 5.86298 6.83963" fill="none" xmlns="http://www.w3.org/2000/svg">
<path id="Vector" d="M2.57967 6.05856C2.26967 5.53081 1.87967 4.77085 1.59967 4.13756C1.07967 2.96595 1.08967 2.48042 1.65967 2.016L2.81967 4.61253C3.05967 5.14028 3.35967 5.47804 3.73967 5.61525C4.08967 5.74191 4.49967 5.69969 4.93967 5.46748C6.00967 4.91862 6.14967 3.78924 5.35967 2.02656C4.72967 0.622746 4.03967 0 3.10967 0C2.68967 0 2.20967 0.137216 1.65967 0.40109C-0.0903293 1.2666 -0.420329 2.46987 0.499671 4.55976C0.729671 5.08751 1.29967 6.21688 1.75967 6.69186L1.89967 6.83963L2.70967 6.2591L2.58967 6.05856H2.57967ZM2.63967 1.4777C3.41967 1.18216 3.80967 1.44604 4.31967 2.57542C4.87967 3.82091 4.63967 4.07422 4.36967 4.22199C4.23967 4.29588 4.12967 4.31699 4.02967 4.27477C3.91967 4.23255 3.81967 4.11644 3.73967 3.92645L2.64967 1.4777H2.63967Z" fill="var(--fill-0, #231F20)"/>
</svg>
