<svg preserveAspectRatio="none" width="100%" height="100%" overflow="visible" style="display: block;" viewBox="0 0 42.2936 43.4933" fill="none" xmlns="http://www.w3.org/2000/svg">
<path id="Vector" d="M14.1035 21.7423C14.1035 17.7383 17.2575 14.4948 21.1511 14.4948C25.0446 14.4948 28.1986 17.7383 28.1986 21.7423C28.1986 25.7463 25.0446 28.9897 21.1511 28.9897C17.2575 28.9897 14.1035 25.7463 14.1035 21.7423ZM10.295 21.7423C10.295 27.9056 15.1577 32.9063 21.1511 32.9063C27.1444 32.9063 32.0071 27.9056 32.0071 21.7423C32.0071 15.5789 27.1444 10.5783 21.1511 10.5783C15.1577 10.5783 10.295 15.5789 10.295 21.7423ZM29.8988 10.1324C29.8988 11.5749 31.038 12.7464 32.4322 12.7464C33.8264 12.7464 34.9656 11.5749 34.9656 10.1324C34.9656 8.68991 33.8264 7.52718 32.4322 7.52718C31.038 7.52718 29.8988 8.69866 29.8988 10.1324ZM12.6073 39.4368C10.55 39.3407 9.42787 38.991 8.67976 38.685C7.69362 38.2916 6.98801 37.8195 6.24841 37.0589C5.5088 36.2983 5.04973 35.5727 4.66718 34.5586C4.37814 33.7893 4.02959 32.644 3.93607 30.5196C3.83406 28.2291 3.81705 27.5385 3.81705 21.7335C3.81705 15.9286 3.84256 15.2379 3.93607 12.9474C4.02959 10.8318 4.37814 9.6778 4.66718 8.90847C5.04973 7.89436 5.5088 7.16874 6.24841 6.40816C6.98801 5.64757 7.69362 5.17548 8.67976 4.78208C9.42787 4.48484 10.5415 4.1264 12.6073 4.03023C14.8347 3.92532 15.5063 3.90784 21.1511 3.90784C26.7959 3.90784 27.4675 3.93407 29.6948 4.03023C31.7521 4.1264 32.8743 4.48484 33.6224 4.78208C34.6085 5.17548 35.3141 5.64757 36.0537 6.40816C36.7933 7.16874 37.2524 7.89436 37.635 8.90847C37.924 9.6778 38.2726 10.8231 38.3661 12.9474C38.4681 15.2379 38.4851 15.9286 38.4851 21.7335C38.4851 27.5385 38.4681 28.2291 38.3661 30.5196C38.2726 32.6353 37.924 33.7893 37.635 34.5586C37.2524 35.5727 36.7933 36.2983 36.0537 37.0589C35.3141 37.8195 34.6085 38.2916 33.6224 38.685C32.8743 38.9822 31.7606 39.3407 29.6948 39.4368C27.4675 39.5417 26.7959 39.5592 21.1511 39.5592C15.5063 39.5592 14.8347 39.5417 12.6073 39.4368ZM12.4373 0.131136C10.1845 0.236044 8.64576 0.603223 7.30256 1.13651C5.90836 1.68728 4.73519 2.43912 3.55352 3.64557C2.38035 4.85202 1.65774 6.0672 1.11366 7.50095C0.595086 8.88225 0.238035 10.4646 0.127519 12.7813C0.0255037 15.0981 0 15.8412 0 21.7423C0 27.6434 0.0255037 28.3865 0.127519 30.7032C0.229533 33.0199 0.586585 34.6023 1.11366 35.9836C1.64924 37.4173 2.37184 38.6238 3.55352 39.839C4.72669 41.0454 5.90836 41.7885 7.30256 42.348C8.64576 42.8813 10.1845 43.2485 12.4373 43.3622C14.6901 43.4671 15.4127 43.4933 21.1511 43.4933C26.8894 43.4933 27.612 43.4671 29.8648 43.3622C32.1177 43.2572 33.6564 42.8901 34.9996 42.348C36.3938 41.7885 37.567 41.0454 38.7486 39.839C39.9218 38.6325 40.6444 37.4173 41.1885 35.9836C41.7071 34.6023 42.0726 33.0199 42.1661 30.7032C42.2681 28.3865 42.2936 27.6434 42.2936 21.7423C42.2936 15.8412 42.2681 15.0981 42.1661 12.7813C42.0641 10.4646 41.7071 8.88225 41.1885 7.50095C40.6444 6.0672 39.9218 4.86076 38.7486 3.64557C37.5755 2.43912 36.3938 1.69602 35.0081 1.13651C33.6649 0.603223 32.1262 0.227302 29.8733 0.131136C27.6205 0.0262271 26.8979 0 21.1596 0C15.4212 0 14.6986 0.0262271 12.4458 0.131136" fill="var(--fill-0, #D9D9D9)"/>
</svg>
