<svg preserveAspectRatio="none" width="100%" height="100%" overflow="visible" style="display: block;" viewBox="0 0 26.1939 26.1939" fill="none" xmlns="http://www.w3.org/2000/svg">
<path id="Vector" d="M19.8429 0H6.35099C2.84373 0 0 2.84373 0 6.35099V19.8429C0 23.3502 2.84373 26.1939 6.35099 26.1939H19.8429C23.3502 26.1939 26.1939 23.3502 26.1939 19.8429V6.35099C26.1939 2.84373 23.3502 0 19.8429 0ZM24.0874 19.8429C24.0874 22.1811 22.1863 24.0874 19.8429 24.0874H6.35099C4.01281 24.0874 2.10646 22.1863 2.10646 19.8429V6.35099C2.10646 4.01281 4.00755 2.10646 6.35099 2.10646H13.2655C13.4392 3.17023 13.7394 4.19713 14.1502 5.16084H15.3193H16.7095C17.531 5.16084 18.2578 5.25036 18.8845 5.43468H18.9108L18.9371 5.45048C19.5954 5.67165 20.1694 6.00869 20.6697 6.48791L20.696 6.51424L20.7223 6.54057C21.1963 7.03559 21.5439 7.61487 21.7492 8.28894C21.9388 8.91034 22.0283 9.64761 22.0283 10.4797V11.4592C22.0283 11.7804 22.0178 12.0964 21.9862 12.4071C22.6603 12.6335 23.3607 12.8073 24.0822 12.9232V19.8376L24.0874 19.8429Z" fill="var(--fill-0, #7C7C7C)"/>
</svg>
