<svg preserveAspectRatio="none" width="100%" height="100%" overflow="visible" style="display: block;" viewBox="0 0 31.2808 22.5565" fill="none" xmlns="http://www.w3.org/2000/svg">
<path id="Vector" d="M15.6404 22.5513C14.693 22.5513 6.30587 22.5306 3.96058 21.9083C2.34529 21.4727 1.07169 20.1971 0.641977 18.5845C0.00517723 16.1992 0 11.4753 0 11.2782C0 11.0812 0.00517723 6.35212 0.641977 3.96683C1.07686 2.34899 2.35046 1.07338 3.96058 0.64299C6.30587 0.0207416 14.693 0 15.6404 0C16.5879 0 24.9802 0.0207416 27.3203 0.64299C28.9356 1.07856 30.2092 2.34899 30.6389 3.96683C31.2757 6.35212 31.2808 11.076 31.2808 11.2782C31.2808 11.4805 31.2757 16.2044 30.6389 18.5897C30.204 20.2075 28.9304 21.4831 27.3203 21.9135C24.9802 22.5409 16.5879 22.5565 15.6404 22.5565V22.5513ZM15.6404 2.07416C13.1398 2.07416 6.25928 2.17787 4.49384 2.64974C3.593 2.88827 2.88372 3.59867 2.64039 4.50611C2.07607 6.62694 2.06572 11.2316 2.06572 11.2782C2.06572 11.3249 2.07089 15.9296 2.64039 18.0504C2.87854 18.9526 3.58782 19.663 4.49384 19.9068C6.2541 20.3786 13.1346 20.4823 15.6352 20.4823C18.1358 20.4823 25.0216 20.3786 26.7818 19.9068C27.6827 19.6682 28.3919 18.9578 28.6353 18.0504C29.1996 15.9296 29.2099 11.3249 29.2099 11.2782C29.2099 11.2316 29.2048 6.62694 28.6353 4.50611C28.3971 3.60385 27.6878 2.89345 26.7818 2.64974C25.0267 2.17787 18.141 2.07416 15.6404 2.07416Z" fill="var(--fill-0, #7C7C7C)"/>
</svg>
