<svg preserveAspectRatio="none" width="100%" height="100%" overflow="visible" style="display: block;" viewBox="0 0 26.3548 21.7379" fill="none" xmlns="http://www.w3.org/2000/svg">
<path id="Vector" d="M24.6235 12.7664C25.3405 11.7871 25.699 10.2219 25.699 8.14078V6.51438C25.699 5.27271 25.5678 4.30211 25.3405 3.55012C25.1131 2.79812 24.7196 2.15106 24.1688 1.5652C23.5829 1.01432 22.9271 0.620833 22.1489 0.358509C21.3619 0.131162 20.3826 0 19.1759 0H0V21.7379H5.44759V14.6639H15.4858L20.2514 21.7379H26.3548L21.0996 14.6289C23.032 14.3404 23.9064 13.7458 24.6235 12.7664ZM20.2514 8.23697C20.2514 8.89278 20.0853 9.3125 19.8317 9.53984C19.5694 9.76719 19.0447 9.86338 18.3015 9.86338H5.45634V4.78304H18.3015C19.0535 4.78304 19.5781 4.9142 19.8317 5.14155C20.094 5.36889 20.2514 5.79736 20.2514 6.40945V8.23697Z" fill="var(--fill-0, #7C7C7C)"/>
</svg>
