<svg preserveAspectRatio="none" width="100%" height="100%" overflow="visible" style="display: block;" viewBox="0 0 62.8205 54.3501" fill="none" xmlns="http://www.w3.org/2000/svg">
<g id="Group 1443">
<path id="Vector" d="M6.19 30.0701L6.05 29.1801C6.01 28.9101 5.83 28.7301 5.59 28.6901L2.67 27.6501C2.53 27.6001 2.37 27.5701 2.24 27.5401C2.39 27.4501 2.52 27.3701 2.63 27.2801L5.05 25.4601C5.39 25.2801 5.43 25.0301 5.4 24.8501L5.26 23.9501C5.21 23.6201 4.96 23.4301 4.65 23.4601L0 23.8801L0.19 25.1001L4.05 24.7501L1.36 26.7501C1.22 26.8601 1 27.0201 1.05 27.3501L1.16 28.0601C1.21 28.4001 1.48 28.4901 1.63 28.5401L4.79 29.6501L1.08 30.4601H1.02L1.21 31.7001L5.75 30.7101C6.07 30.6601 6.26 30.4001 6.21 30.0701H6.19Z" fill="var(--fill-0, #231F20)"/>
<path id="Vector_2" d="M5.27108 37.9998C4.96108 37.4998 4.57108 36.7798 4.29108 36.1798C3.77108 35.0698 3.78108 34.6098 4.35108 34.1698L5.51108 36.6298C5.75108 37.1298 6.05108 37.4498 6.43108 37.5798C6.78108 37.6998 7.19108 37.6598 7.63108 37.4398C8.70108 36.9198 8.84108 35.8498 8.05108 34.1798C7.42108 32.8498 6.73108 32.2598 5.80108 32.2598C5.38108 32.2598 4.90108 32.3898 4.35108 32.6398C2.60108 33.4598 2.27108 34.5998 3.19108 36.5798C3.42108 37.0798 3.99108 38.1498 4.45108 38.5998L4.59108 38.7398L5.40108 38.1898L5.28108 37.9998H5.27108ZM5.33108 33.6598C6.11108 33.3798 6.50108 33.6298 7.01108 34.6998C7.57108 35.8798 7.33108 36.1198 7.06108 36.2598C6.93108 36.3298 6.82108 36.3498 6.72108 36.3098C6.61108 36.2698 6.51108 36.1598 6.43108 35.9798L5.34108 33.6598H5.33108Z" fill="var(--fill-0, #231F20)"/>
<path id="Vector_3" d="M12.9911 41.7399L13.0411 41.6999L11.2411 39.3999C10.4411 38.3799 9.69109 38.5599 9.19109 38.8899C8.22109 39.5299 7.40109 39.8599 6.52109 39.9699L5.99109 39.2899L5.12109 39.9799L9.29109 45.3299L9.33109 45.3799L10.2211 44.6799L9.85109 44.2099L12.9911 41.7499V41.7399ZM9.07109 43.2199L7.34109 41.0099C8.12109 40.8899 8.88109 40.5699 9.82109 39.9599C9.92109 39.8899 10.1111 39.7599 10.4411 40.1899L11.3911 41.4099L9.07109 43.2299V43.2199Z" fill="var(--fill-0, #231F20)"/>
<path id="Vector_4" d="M18.5914 45.8603L17.7714 45.2703L13.0314 45.9303L14.9614 43.2503L13.9714 42.5303L10.9814 46.6803L10.9414 46.7403L11.7514 47.3203L16.4914 46.6803L14.5714 49.3503L15.5614 50.0603L18.5514 45.9103L18.5914 45.8603Z" fill="var(--fill-0, #231F20)"/>
<path id="Vector_5" d="M22.5093 47.39C21.7193 47.08 20.7993 46.8 19.6793 46.52L19.4493 46.46L19.2093 47.5L19.4193 47.56C19.8993 47.71 21.1193 48.09 21.9493 48.41C22.3893 48.58 22.6493 48.74 22.7393 48.9C22.8193 49.05 22.7693 49.18 22.7093 49.33L22.6393 49.5L20.3493 48.61C19.2793 48.19 18.4493 48.43 18.1293 49.24L17.9393 49.72C17.5893 50.61 18.0793 51.44 19.2193 51.88C19.9793 52.18 20.9093 52.25 21.7693 52.08L21.6093 52.72L22.5593 53.09L22.6193 53.11L23.9093 49.8C24.4793 48.34 23.3793 47.72 22.4993 47.38L22.5093 47.39ZM22.0393 51.03C21.7993 51.08 21.5293 51.11 21.2593 51.11C20.7393 51.11 20.1893 51.01 19.7793 50.84C19.4493 50.71 19.2393 50.57 19.1793 50.41C19.1293 50.29 19.1693 50.18 19.1993 50.1L19.3093 49.82C19.3493 49.73 19.3993 49.58 19.6493 49.58C19.7693 49.58 19.9093 49.61 20.0793 49.67L22.2493 50.51L22.0493 51.02L22.0393 51.03Z" fill="var(--fill-0, #231F20)"/>
<path id="Vector_6" d="M32.8588 51.6401C33.2488 51.4401 33.4388 51.0901 33.4488 50.6001C33.4688 50.0001 33.2487 49.6101 32.7787 49.3701C32.3687 49.1601 31.7587 49.0601 30.7188 49.0401C29.6988 49.0101 29.1088 49.0001 28.3288 49.0401H28.1088L27.9688 54.1401V54.2001L28.1888 54.2201C29.0688 54.2901 29.7088 54.3201 30.9088 54.3501C31.0488 54.3501 31.1787 54.3501 31.2987 54.3501C32.0487 54.3501 32.5388 54.2801 32.8888 54.1201C33.3588 53.9101 33.5888 53.5301 33.6088 52.9501C33.6288 52.3101 33.3788 51.8801 32.8588 51.6401ZM29.3288 50.1101L30.6588 50.1501C32.0788 50.1901 32.1887 50.3801 32.1887 50.6401C32.1887 50.8601 32.1087 50.9401 31.9587 50.9901C31.7587 51.0701 31.4088 51.1001 30.8188 51.0801L29.2987 51.0401L29.3288 50.1101ZM30.8388 53.2201H30.5888C30.0688 53.2001 29.6088 53.1901 29.2388 53.1701L29.2688 52.0901L30.7888 52.1301C31.4188 52.1501 31.8288 52.2101 32.0588 52.3201C32.2388 52.4101 32.3087 52.5201 32.2987 52.7401C32.2987 53.0601 32.1788 53.2601 30.8388 53.2201Z" fill="var(--fill-0, #231F20)"/>
<path id="Vector_7" d="M40.2697 51.9102C39.7197 52.1002 38.9397 52.3202 38.2797 52.4602C37.0897 52.7202 36.6297 52.6002 36.3397 51.9502L38.9997 51.3702C39.5397 51.2502 39.9197 51.0202 40.1297 50.6902C40.3297 50.3702 40.3697 49.9702 40.2597 49.4902C40.0697 48.6302 39.4397 48.2002 38.3997 48.2002C38.0497 48.2002 37.6297 48.2502 37.1697 48.3502C36.1297 48.5802 35.4697 48.9102 35.0997 49.4102C34.7097 49.9302 34.6297 50.6402 34.8397 51.6202C35.1697 53.1302 35.8697 53.7802 37.1897 53.7802C37.5497 53.7802 37.9497 53.7302 38.4197 53.6302C38.9597 53.5102 40.1297 53.2002 40.6697 52.8602L40.8297 52.7602L40.4797 51.8502L40.2697 51.9202V51.9102ZM37.4497 49.4802C37.7897 49.4102 38.0797 49.3702 38.2997 49.3702C38.8097 49.3702 38.9297 49.5702 38.9797 49.7802C39.0197 49.9202 39.0097 50.0402 38.9497 50.1202C38.8897 50.2202 38.7597 50.2902 38.5597 50.3302L36.0497 50.8802C35.9597 50.0602 36.2797 49.7302 37.4397 49.4802H37.4497Z" fill="var(--fill-0, #231F20)"/>
<path id="Vector_8" d="M45.4503 45.2002L43.0303 46.4002C42.1203 46.8502 41.8103 47.4802 42.0803 48.3302L42.1303 48.4702C42.3303 49.0902 42.6403 50.0202 42.5903 50.6402C42.5703 50.9702 42.4703 51.1802 42.0003 51.5402L41.8203 51.6802L42.4303 52.5502L42.6103 52.4602C43.4403 52.0402 43.8403 51.4102 43.8303 50.5602C43.8403 49.7802 43.5503 48.8602 43.3003 48.0402L43.2803 47.9802C43.2003 47.7002 43.2103 47.5702 43.6403 47.3502L44.7803 46.7902L46.5503 50.3802L46.5803 50.4402L47.7503 49.8602L45.4803 45.2702L45.4503 45.2102V45.2002Z" fill="var(--fill-0, #231F20)"/>
<path id="Vector_9" d="M50.6906 40.8799L49.9506 41.5199L49.9306 41.5399L49.4806 46.2699C49.4806 46.2699 49.4806 46.2899 49.4806 46.3099L47.3606 43.8499L47.3206 43.7999L46.3906 44.5999L49.7406 48.4699L49.7806 48.5199L50.5106 47.8899L50.5306 47.8699L51.0006 43.1099L53.1106 45.5599L53.1506 45.6099L54.0706 44.8099L50.7206 40.9399L50.6806 40.8899L50.6906 40.8799Z" fill="var(--fill-0, #231F20)"/>
<path id="Vector_10" d="M54.2409 35.9805L53.4909 37.0405L55.2309 38.2705C54.9909 38.9605 54.7209 39.4605 54.3009 40.0705C54.1409 40.2905 54.0109 40.4205 53.9009 40.4605C53.8609 40.4705 53.7709 40.5005 53.5909 40.3805L51.9509 39.2305L51.2109 40.2805L53.0709 41.5905C53.3009 41.7505 53.5409 41.8305 53.7709 41.8305C53.8909 41.8305 54.0109 41.8105 54.1309 41.7705C54.4609 41.6605 54.7709 41.3905 55.0809 40.9505C55.4809 40.3805 55.8609 39.6705 56.1509 38.9305L57.7309 40.0405L58.4709 38.9905L54.2909 36.0305L54.2409 35.9905V35.9805Z" fill="var(--fill-0, #231F20)"/>
<path id="Vector_11" d="M56.8486 29.71L56.4986 30.63L56.4886 30.65L58.3486 35.07L55.3086 33.9L55.2486 33.88L54.8286 34.96L54.8086 35.02L59.5886 36.86L59.6486 36.89L59.9986 35.98L60.0086 35.96L58.1886 31.55L58.1786 31.53L61.1886 32.69L61.2486 32.72L61.6686 31.64L61.6886 31.58L56.9186 29.74L56.8486 29.71Z" fill="var(--fill-0, #231F20)"/>
<path id="Vector_12" d="M60.9405 25.1903L62.6705 25.3903L62.8205 24.1203L57.7105 23.5303L57.6705 23.7403C57.5205 24.5203 57.4505 25.0503 57.3005 26.3503C57.2005 27.2003 57.2605 27.8103 57.4905 28.2303C57.7105 28.6303 58.0905 28.8603 58.6305 28.9303C59.2805 29.0103 59.7305 28.8103 60.0405 28.3203C60.1405 28.5903 60.2905 28.8103 60.5205 28.9103C60.8905 29.0803 61.0905 29.0603 61.5205 29.3203C61.7405 29.4503 61.9005 29.6003 62.0105 29.7203L62.1805 29.6803L62.3205 28.4203C62.1005 28.1203 61.6405 27.9403 60.9905 27.7303C60.7905 27.6203 60.7105 27.2403 60.7705 26.7003L60.9405 25.2003V25.1903ZM59.6905 26.5403C59.6305 27.0603 59.5305 27.3803 59.3905 27.5403C59.3005 27.6403 59.2005 27.6803 59.0505 27.6803C59.0005 27.6803 58.9505 27.6803 58.9005 27.6703C58.5705 27.6303 58.2905 27.6003 58.4205 26.4503L58.4605 26.0803C58.5105 25.6403 58.5605 25.2403 58.6005 24.9203L59.8605 25.0703L59.6905 26.5403Z" fill="var(--fill-0, #231F20)"/>
<path id="Vector_13" d="M31.5286 45.92C44.0586 45.92 54.2486 35.73 54.2486 23.2C54.2486 18.3 52.6786 13.76 50.0286 10.04C50.7786 9 51.2286 7.72 51.2286 6.34C51.2286 2.84 48.3886 0 44.8886 0C42.9886 0 41.2786 0.85 40.1186 2.17C37.4686 1.08 34.5686 0.48 31.5286 0.48C18.9986 0.48 8.80859 10.67 8.80859 23.2C8.80859 35.73 18.9986 45.92 31.5286 45.92ZM31.5286 2.49C34.1786 2.49 36.7086 3.01 39.0386 3.92C38.7286 4.67 38.5486 5.49 38.5486 6.35C38.5486 9.85 41.3886 12.69 44.8886 12.69C46.2686 12.69 47.5486 12.24 48.5886 11.49C50.8886 14.83 52.2386 18.86 52.2386 23.21C52.2386 34.63 42.9486 43.93 31.5186 43.93C20.0886 43.93 10.8086 34.62 10.8086 23.2C10.8086 11.78 20.1086 2.48 31.5286 2.48V2.49ZM42.0586 3.09C42.8186 2.43 43.8086 2.01 44.8886 2.01C47.2786 2.01 49.2286 3.96 49.2286 6.35C49.2286 7.08 49.0286 7.76 48.7086 8.37C48.5486 8.67 48.3586 8.96 48.1286 9.21C47.9086 9.46 47.6586 9.7 47.3786 9.89C46.6686 10.39 45.8186 10.68 44.8886 10.68C42.4986 10.68 40.5486 8.73 40.5486 6.34C40.5486 5.77 40.6686 5.23 40.8686 4.73C40.9986 4.41 41.1586 4.11 41.3586 3.83C41.5586 3.55 41.7986 3.3 42.0586 3.07V3.09Z" fill="var(--fill-0, #231F20)"/>
<path id="Vector_14" d="M27.8186 37.4197C28.0886 39.9997 30.2586 42.0297 32.9186 42.0297C35.7586 42.0297 38.0686 39.7197 38.0686 36.8797C38.0686 36.7097 38.0386 36.5497 38.0186 36.3797C42.8886 33.9797 46.2486 28.9797 46.2486 23.1897C46.2486 15.0797 39.6486 8.46973 31.5286 8.46973C23.4086 8.46973 16.8086 15.0697 16.8086 23.1897C16.8086 30.0197 21.4986 35.7597 27.8186 37.4097V37.4197ZM22.3786 14.3897C24.1686 12.5197 26.5286 11.2097 29.1686 10.7097L31.6286 17.4997C31.6286 17.4997 31.5586 17.4997 31.5286 17.4997C30.9086 17.4997 30.3186 17.5997 29.7586 17.7797C29.8186 17.8297 29.8886 17.8797 29.9486 17.9297C30.0286 17.9997 30.1086 18.0797 30.1786 18.1597C30.5286 18.5497 30.7786 19.0197 30.8786 19.5597C30.9086 19.7397 30.9386 19.9297 30.9386 20.1197C30.9386 21.7497 29.6186 23.0697 27.9886 23.0697C27.9386 23.0697 27.8986 23.0597 27.8486 23.0597C27.3786 23.0397 26.9386 22.9097 26.5586 22.6897C26.3286 22.5597 26.1086 22.4097 25.9286 22.2297C25.5986 21.9097 25.3586 21.4997 25.2086 21.0497L18.8386 23.3597C18.8386 23.2997 18.8386 23.2497 18.8386 23.1897C18.8386 20.5097 19.6786 18.0297 21.0886 15.9797L25.7886 18.1797C26.3286 17.5597 27.1186 17.1597 27.9986 17.1597C28.1386 17.1597 28.2786 17.1797 28.4186 17.1997L22.3986 14.3797L22.3786 14.3897ZM31.5286 10.4797C34.1786 10.4797 36.6386 11.2997 38.6786 12.6897L35.6186 19.2297C35.4686 19.0797 35.3186 18.9297 35.1486 18.7897C34.8686 18.5597 34.5586 18.3597 34.2286 18.1897C34.1286 18.1397 34.0386 18.0797 33.9486 18.0297L31.2086 10.4897C31.3086 10.4897 31.4186 10.4697 31.5186 10.4697L31.5286 10.4797ZM44.0186 20.8697L37.2186 23.3397C37.2186 23.3397 37.2186 23.2397 37.2186 23.1897C37.2186 22.5097 37.0886 21.8597 36.8686 21.2497L40.2586 13.9897C42.1586 15.7997 43.5086 18.1897 43.9986 20.8697H44.0186ZM44.2386 23.1897C44.2386 25.8897 43.3886 28.3897 41.9486 30.4497L35.3886 27.3797C35.4486 27.3297 35.5086 27.2797 35.5586 27.2297C35.9486 26.8397 36.2786 26.3997 36.5386 25.9197C36.5786 25.8397 36.6186 25.7597 36.6586 25.6797L44.2286 22.9297C44.2286 23.0197 44.2386 23.1097 44.2386 23.1997V23.1897ZM32.9086 40.0297C31.4986 40.0297 30.3186 39.0897 29.9186 37.8197C29.8286 37.5197 29.7586 37.2097 29.7586 36.8797C29.7586 36.8497 29.7586 36.8197 29.7586 36.7797C29.7686 36.4397 29.8386 36.1097 29.9486 35.7997C30.1686 35.1997 30.5586 34.6897 31.0686 34.3197C31.5886 33.9497 32.2186 33.7197 32.8986 33.7197C32.9286 33.7197 32.9486 33.7197 32.9786 33.7197C34.0786 33.7497 35.0286 34.3397 35.5686 35.2097C35.7386 35.4897 35.8786 35.7997 35.9586 36.1397C36.0186 36.3697 36.0486 36.6097 36.0486 36.8597C36.0486 36.9697 36.0286 37.0697 36.0186 37.1797C35.8586 38.7697 34.5286 40.0097 32.8986 40.0097L32.9086 40.0297ZM19.0086 25.4097L25.8286 22.9297C25.8286 23.0197 25.8186 23.0997 25.8186 23.1797C25.8186 23.3797 25.8186 23.5697 25.8486 23.7597C25.8886 24.1397 25.9586 24.5097 26.0686 24.8597L22.6186 32.2397C20.7686 30.4197 19.4786 28.0497 19.0086 25.3897V25.4097ZM27.2786 26.9997C27.3486 27.0697 27.4086 27.1497 27.4786 27.2197C27.8786 27.6197 28.3486 27.9597 28.8586 28.2297L30.3786 32.4097C29.2386 33.0597 28.3786 34.1197 27.9986 35.3897C26.6286 34.9897 25.3486 34.3697 24.2086 33.5697L27.2786 26.9897V26.9997ZM32.8986 31.7297C32.6886 31.7297 32.4786 31.7697 32.2786 31.7897L31.2186 28.8797C31.3186 28.8797 31.4086 28.8897 31.5086 28.8897C32.1286 28.8897 32.7286 28.7897 33.2786 28.5997L40.6186 32.0297C39.6886 32.9897 38.5986 33.8097 37.4086 34.4397C36.5386 32.8297 34.8486 31.7197 32.8986 31.7197V31.7297Z" fill="var(--fill-0, #231F20)"/>
</g>
</svg>
