<svg preserveAspectRatio="none" width="100%" height="100%" overflow="visible" style="display: block;" viewBox="0 0 14.8049 12.5829" fill="none" xmlns="http://www.w3.org/2000/svg">
<path id="Vector" d="M0.9058 5.48078C0.9058 5.48078 7.45164 2.72043 9.72662 1.74619C10.5955 1.3565 13.5498 0.111635 13.5498 0.111635C13.5498 0.111635 14.9138 -0.435021 14.7979 0.891027C14.7611 1.43768 14.4556 3.34286 14.1555 5.405C13.7026 8.32231 13.2075 11.5102 13.2075 11.5102C13.2075 11.5102 13.1338 12.4033 12.4861 12.5603C11.8436 12.7172 10.7851 12.0136 10.5955 11.862C10.4428 11.743 7.75707 9.99475 6.7723 9.13959C6.50899 8.90685 6.20356 8.44138 6.80916 7.89473C8.1731 6.61198 9.80034 5.01531 10.7851 4.00318C11.238 3.53771 11.6909 2.44981 9.80034 3.77045C7.1146 5.67563 4.46572 7.46714 4.46572 7.46714C4.46572 7.46714 3.86012 7.85684 2.72263 7.50503C1.58513 7.15322 0.263329 6.68775 0.263329 6.68775C0.263329 6.68775 -0.642451 6.10321 0.9058 5.48078Z" fill="var(--fill-0, #7C7C7C)"/>
</svg>
