<svg preserveAspectRatio="none" width="100%" height="100%" overflow="visible" style="display: block;" viewBox="0 0 15.8722 13.0917" fill="none" xmlns="http://www.w3.org/2000/svg">
<path id="Vector" d="M14.8295 7.68859C15.2613 7.09878 15.4772 6.15614 15.4772 4.90279V3.92329C15.4772 3.17549 15.3983 2.59095 15.2613 2.13806C15.1244 1.68517 14.8874 1.29548 14.5557 0.942643C14.2028 0.610875 13.8079 0.373897 13.3392 0.215912C12.8652 0.0789923 12.2754 0 11.5487 0H0V13.0917H3.28082V8.83135H9.32637L12.1964 13.0917H15.8722L12.7072 8.81029C13.8711 8.6365 14.3977 8.2784 14.8295 7.68859ZM12.1964 4.96072C12.1964 5.35569 12.0964 5.60846 11.9437 5.74538C11.7857 5.8823 11.4697 5.94023 11.0221 5.94023H3.28608V2.88059H11.0221C11.475 2.88059 11.7909 2.95958 11.9437 3.0965C12.1016 3.23342 12.1964 3.49146 12.1964 3.8601V4.96072Z" fill="var(--fill-0, #7C7C7C)"/>
</svg>
