<svg preserveAspectRatio="none" width="100%" height="100%" overflow="visible" style="display: block;" viewBox="0 0 5.64111 5.63254" fill="none" xmlns="http://www.w3.org/2000/svg">
<path id="Vector" d="M4.89 2.77214C5.28 2.56104 5.47 2.19162 5.48 1.67442C5.5 1.04112 5.28 0.629479 4.81 0.376159C4.4 0.154504 3.79 0.0489567 2.75 0.0278468C1.73 -0.00381817 1.14 -0.0143731 0.360001 0.0278468H0.140001L0 5.41089V5.47422L0.220001 5.49533C1.1 5.56921 1.74 5.60087 2.94 5.63254C3.08 5.63254 3.21 5.63254 3.33 5.63254C4.08 5.63254 4.57 5.55866 4.92 5.38978C5.39 5.16812 5.62 4.76703 5.64 4.15484C5.66 3.47933 5.41 3.02546 4.89 2.77214ZM1.36 1.15723L2.69 1.19945C4.11 1.24167 4.22 1.44221 4.22 1.71664C4.22 1.94885 4.14 2.03329 3.99 2.08607C3.79 2.17051 3.44 2.20217 2.85 2.18106L1.33 2.13884L1.36 1.15723ZM2.87 4.43983H2.62C2.1 4.41872 1.64 4.40816 1.27 4.38705L1.3 3.24712L2.82 3.28934C3.45 3.31045 3.86 3.37378 4.09 3.48988C4.27 3.58487 4.34 3.70098 4.33 3.93319C4.33 4.27095 4.21 4.48205 2.87 4.43983Z" fill="var(--fill-0, #231F20)"/>
</svg>
