<svg preserveAspectRatio="none" width="100%" height="100%" overflow="visible" style="display: block;" viewBox="0 0 29.44 35.4225" fill="none" xmlns="http://www.w3.org/2000/svg">
<path id="Vector" d="M11.01 30.5567C11.28 33.2799 13.45 35.4225 16.11 35.4225C18.95 35.4225 21.26 32.9843 21.26 29.9867C21.26 29.8073 21.23 29.6384 21.21 29.459C26.08 26.9258 29.44 21.6483 29.44 15.5369C29.44 6.97684 22.84 0 14.72 0C6.6 0 0 6.96629 0 15.5369C0 22.746 4.69 28.8045 11.01 30.5461V30.5567ZM5.57 6.24855C7.36 4.27477 9.72 2.89206 12.36 2.36432L14.82 9.53115C14.82 9.53115 14.75 9.53115 14.72 9.53115C14.1 9.53115 13.51 9.6367 12.95 9.82669C13.01 9.87946 13.08 9.93224 13.14 9.98501C13.22 10.0589 13.3 10.1433 13.37 10.2278C13.72 10.6394 13.97 11.1355 14.07 11.7055C14.1 11.8955 14.13 12.096 14.13 12.2966C14.13 14.017 12.81 15.4103 11.18 15.4103C11.13 15.4103 11.09 15.3997 11.04 15.3997C10.57 15.3786 10.13 15.2414 9.75 15.0092C9.52 14.872 9.3 14.7136 9.12 14.5237C8.79 14.1859 8.55 13.7531 8.4 13.2782L2.03 15.7164C2.03 15.653 2.03 15.6003 2.03 15.5369C2.03 12.7082 2.87 10.0906 4.28 7.92679L8.98 10.2489C9.52 9.59448 10.31 9.17228 11.19 9.17228C11.33 9.17228 11.47 9.19339 11.61 9.2145L5.59 6.23799L5.57 6.24855ZM14.72 2.12155C17.37 2.12155 19.83 2.98706 21.87 4.4542L18.81 11.3572C18.66 11.1988 18.51 11.0405 18.34 10.8927C18.06 10.65 17.75 10.4389 17.42 10.2594C17.32 10.2067 17.23 10.1433 17.14 10.0906L14.4 2.13211C14.5 2.13211 14.61 2.111 14.71 2.111L14.72 2.12155ZM27.21 13.0882L20.41 15.6953C20.41 15.6953 20.41 15.5897 20.41 15.5369C20.41 14.8192 20.28 14.1331 20.06 13.4893L23.45 5.82635C25.35 7.7368 26.7 10.2594 27.19 13.0882H27.21ZM27.43 15.5369C27.43 18.3868 26.58 21.0255 25.14 23.1998L18.58 19.9595C18.64 19.9067 18.7 19.8539 18.75 19.8011C19.14 19.3895 19.47 18.9251 19.73 18.4184C19.77 18.334 19.81 18.2496 19.85 18.1651L27.42 15.2625C27.42 15.3575 27.43 15.4525 27.43 15.5475V15.5369ZM16.1 33.3115C14.69 33.3115 13.51 32.3194 13.11 30.9789C13.02 30.6622 12.95 30.335 12.95 29.9867C12.95 29.955 12.95 29.9234 12.95 29.8811C12.96 29.5223 13.03 29.174 13.14 28.8468C13.36 28.2135 13.75 27.6752 14.26 27.2846C14.78 26.8941 15.41 26.6513 16.09 26.6513C16.12 26.6513 16.14 26.6513 16.17 26.6513C17.27 26.683 18.22 27.3057 18.76 28.224C18.93 28.5196 19.07 28.8468 19.15 29.2056C19.21 29.4484 19.24 29.7017 19.24 29.9656C19.24 30.0817 19.22 30.1872 19.21 30.3034C19.05 31.9816 17.72 33.2904 16.09 33.2904L16.1 33.3115ZM2.2 17.8801L9.02 15.2625C9.02 15.3575 9.01 15.4419 9.01 15.5264C9.01 15.7375 9.01 15.938 9.04 16.1386C9.08 16.5397 9.15 16.9302 9.26 17.2996L5.81 25.0892C3.96 23.1682 2.67 20.6667 2.2 17.859V17.8801ZM10.47 19.5584C10.54 19.6323 10.6 19.7167 10.67 19.7906C11.07 20.2128 11.54 20.5717 12.05 20.8566L13.57 25.2686C12.43 25.9547 11.57 27.0735 11.19 28.414C9.82 27.9918 8.54 27.3374 7.4 26.493L10.47 19.5478V19.5584ZM16.09 24.5509C15.88 24.5509 15.67 24.5931 15.47 24.6142L14.41 21.5427C14.51 21.5427 14.6 21.5533 14.7 21.5533C15.32 21.5533 15.92 21.4477 16.47 21.2472L23.81 24.8675C22.88 25.8808 21.79 26.7463 20.6 27.4113C19.73 25.7119 18.04 24.5403 16.09 24.5403V24.5509Z" fill="var(--fill-0, #231F20)"/>
</svg>
