<svg preserveAspectRatio="none" width="100%" height="100%" overflow="visible" style="display: block;" viewBox="0 0 5.93 7.75791" fill="none" xmlns="http://www.w3.org/2000/svg">
<path id="Vector" d="M3.63 0L1.21 1.2666C0.299999 1.74157 -0.00999787 2.40654 0.260002 3.30371L0.310001 3.45148C0.510001 4.10589 0.82 5.0875 0.77 5.74191C0.75 6.09022 0.65 6.31188 0.18 6.69186L0 6.83963L0.610001 7.75791L0.790001 7.66292C1.62 7.21961 2.02 6.55464 2.01 5.65747C2.02 4.83418 1.73 3.86312 1.48 2.99762L1.46 2.93428C1.38 2.63874 1.39 2.50153 1.82 2.26932L2.96 1.67824L4.73 5.46748L4.76 5.53081L5.93 4.91862L3.66 0.0738846L3.63 0.0105532V0Z" fill="var(--fill-0, #231F20)"/>
</svg>
