<svg preserveAspectRatio="none" width="100%" height="100%" overflow="visible" style="display: block;" viewBox="0 0 51.9399 37.4536" fill="none" xmlns="http://www.w3.org/2000/svg">
<path id="Vector" d="M25.9699 37.445C24.3968 37.445 10.4705 37.4106 6.5763 36.3774C3.8942 35.6541 1.77947 33.5361 1.06596 30.8584C0.00859646 26.8977 0 19.054 0 18.7268C0 18.3996 0.00859646 10.5473 1.06596 6.58667C1.78807 3.90034 3.9028 1.78228 6.5763 1.06764C10.4705 0.0344401 24.3968 0 25.9699 0C27.5431 0 41.478 0.0344401 45.3636 1.06764C48.0457 1.79089 50.1604 3.90034 50.8739 6.58667C51.9313 10.5473 51.9399 18.391 51.9399 18.7268C51.9399 19.0626 51.9313 26.9063 50.8739 30.867C50.1518 33.5533 48.0371 35.6714 45.3636 36.386C41.478 37.4278 27.5431 37.4536 25.9699 37.4536V37.445ZM25.9699 3.44401C21.8178 3.44401 10.3931 3.61621 7.46174 4.39973C5.96595 4.79579 4.78823 5.97536 4.3842 7.48212C3.44718 11.0036 3.42999 18.6493 3.42999 18.7268C3.42999 18.8043 3.43859 26.45 4.3842 29.9715C4.77964 31.4697 5.95735 32.6492 7.46174 33.0539C10.3845 33.8374 21.8092 34.0096 25.9613 34.0096C30.1134 34.0096 41.5467 33.8374 44.4695 33.0539C45.9653 32.6578 47.143 31.4783 47.5471 29.9715C48.4841 26.45 48.5013 18.8043 48.5013 18.7268C48.5013 18.6493 48.4927 11.0036 47.5471 7.48212C47.1516 5.98397 45.9739 4.8044 44.4695 4.39973C41.5553 3.61621 30.122 3.44401 25.9699 3.44401Z" fill="var(--fill-0, #D9D9D9)"/>
</svg>
