<svg preserveAspectRatio="none" width="100%" height="100%" overflow="visible" style="display: block;" viewBox="0 0 42.3407 43.4934" fill="none" xmlns="http://www.w3.org/2000/svg">
<path id="Vector" d="M42.1126 32.2353C42.1208 32.1516 42.1289 32.068 42.1371 31.9927C42.1615 31.7669 42.1778 31.5327 42.2022 31.2985C42.2104 31.1898 42.2185 31.081 42.2266 30.9639C42.2429 30.7381 42.2592 30.5123 42.2674 30.2697C42.2674 30.161 42.2755 30.0606 42.2837 29.9519C42.2999 29.6842 42.3081 29.4166 42.3162 29.1489C42.3162 29.0987 42.3162 29.0486 42.3162 29.0067C42.3325 28.4045 42.3407 27.7856 42.3407 27.1415V16.3518C42.3407 15.7245 42.3325 15.1223 42.3162 14.5368C42.3162 14.4365 42.3162 14.3361 42.3162 14.2357C42.3162 14.0266 42.2999 13.8175 42.2918 13.6084C42.2918 13.4495 42.2755 13.2822 42.2674 13.1233C42.2592 12.9476 42.2429 12.7804 42.2348 12.6047C42.2267 12.4374 42.2104 12.2618 42.2022 12.1029C42.1859 11.9272 42.1696 11.7516 42.1534 11.5759C42.1371 11.4337 42.1289 11.2999 42.1126 11.1577C42.0882 10.9486 42.0638 10.7562 42.0393 10.5555C42.0312 10.4635 42.0149 10.3799 42.0068 10.2879C41.9742 10.0453 41.9335 9.80274 41.8927 9.56854C41.8927 9.54345 41.8846 9.50999 41.8765 9.4849C40.5897 2.12448 36.4607 0 26.4273 0H15.9215C3.27389 0 0 3.36237 0 16.3518V27.1415C0 40.131 3.27389 43.4934 15.9215 43.4934H26.4273C36.8598 43.4934 40.9073 41.2016 42.0068 33.1051C42.0068 33.0717 42.0149 33.0382 42.023 33.0048C42.0556 32.7539 42.0882 32.4946 42.1126 32.2353ZM3.2576 27.1415V16.3518C3.2576 7.92081 4.26746 4.80936 9.4389 3.78894C7.36218 6.28981 6.64551 10.2628 6.64551 16.3518V27.1415C6.64551 33.2306 7.37032 37.1952 9.4389 39.7044C4.26746 38.684 3.2576 35.5809 3.2576 27.1415ZM22.6322 40.1477C11.6866 40.1477 9.90311 38.3243 9.90311 27.1415V16.3518C9.90311 5.16902 11.6866 3.34564 22.6322 3.34564H26.354C37.0552 3.34564 38.9609 5.16066 39.0749 15.4736C39.0749 15.7663 39.0749 16.0507 39.0749 16.3518V27.9612C38.9609 38.3243 37.0634 40.1477 26.3458 40.1477H22.624H22.6322Z" fill="var(--fill-0, #7C7C7C)"/>
</svg>
