<svg preserveAspectRatio="none" width="100%" height="100%" overflow="visible" style="display: block;" viewBox="0 0 70 11.5653" fill="none" xmlns="http://www.w3.org/2000/svg">
<g id="Group 1746">
<path id="Star 6" d="M5.78263 8.31783e-05L7.08091 3.99578H11.2822L7.88329 6.46526L9.18157 10.461L5.78263 7.99148L2.38369 10.461L3.68197 6.46526L0.283022 3.99578H4.48435L5.78263 8.31783e-05Z" fill="var(--fill-0, #232326)"/>
<path id="Star 8" d="M35.0009 8.31783e-05L36.2992 3.99578H40.5005L37.1016 6.46526L38.3998 10.461L35.0009 7.99148L31.602 10.461L32.9002 6.46526L29.5013 3.99578H33.7026L35.0009 8.31783e-05Z" fill="var(--fill-0, #232326)"/>
<path id="Star 7" d="M20.3918 8.31783e-05L21.69 3.99578H25.8914L22.4924 6.46526L23.7907 10.461L20.3918 7.99148L16.9928 10.461L18.2911 6.46526L14.8922 3.99578H19.0935L20.3918 8.31783e-05Z" fill="var(--fill-0, #232326)"/>
<path id="Star 9" d="M49.6082 8.31783e-05L50.9065 3.99578H55.1078L51.7089 6.46526L53.0072 10.461L49.6082 7.99148L46.2093 10.461L47.5076 6.46526L44.1086 3.99578H48.31L49.6082 8.31783e-05Z" fill="var(--fill-0, #737373)"/>
<path id="Star 10" d="M64.2174 8.31783e-05L65.5156 3.99578H69.717L66.318 6.46526L67.6163 10.461L64.2174 7.99148L60.8184 10.461L62.1167 6.46526L58.7178 3.99578H62.9191L64.2174 8.31783e-05Z" fill="var(--fill-0, #737373)"/>
</g>
</svg>
