<svg preserveAspectRatio="none" width="100%" height="100%" overflow="visible" style="display: block;" viewBox="0 0 62.8205 54.3501" fill="none" xmlns="http://www.w3.org/2000/svg">
<g id="Group 1443">
<path id="Vector" d="M6.19 30.0699L6.05 29.1799C6.01 28.9099 5.83 28.7299 5.59 28.6899L2.67 27.6499C2.53 27.5999 2.37 27.5699 2.24 27.5399C2.39 27.4499 2.52 27.3699 2.63 27.2799L5.05 25.4599C5.39 25.2799 5.43 25.0299 5.4 24.8499L5.26 23.9499C5.21 23.6199 4.96 23.4299 4.65 23.4599L0 23.8799L0.19 25.0999L4.05 24.7499L1.36 26.7499C1.22 26.8599 1 27.0199 1.05 27.3499L1.16 28.0599C1.21 28.3999 1.48 28.4899 1.63 28.5399L4.79 29.6499L1.08 30.4599H1.02L1.21 31.6999L5.75 30.7099C6.07 30.6599 6.26 30.3999 6.21 30.0699H6.19Z" fill="var(--fill-0, #231F20)"/>
<path id="Vector_2" d="M5.2701 38C4.9601 37.5 4.5701 36.78 4.2901 36.18C3.7701 35.07 3.7801 34.61 4.3501 34.17L5.5101 36.63C5.7501 37.13 6.0501 37.45 6.4301 37.58C6.7801 37.7 7.1901 37.66 7.6301 37.44C8.7001 36.92 8.8401 35.85 8.0501 34.18C7.4201 32.85 6.7301 32.26 5.8001 32.26C5.3801 32.26 4.9001 32.39 4.3501 32.64C2.6001 33.46 2.2701 34.6 3.1901 36.58C3.4201 37.08 3.9901 38.15 4.4501 38.6L4.5901 38.74L5.4001 38.19L5.2801 38H5.2701ZM5.3301 33.66C6.1101 33.38 6.5001 33.63 7.0101 34.7C7.5701 35.88 7.3301 36.12 7.0601 36.26C6.9301 36.33 6.8201 36.35 6.7201 36.31C6.6101 36.27 6.5101 36.16 6.4301 35.98L5.3401 33.66H5.3301Z" fill="var(--fill-0, #231F20)"/>
<path id="Vector_3" d="M12.9901 41.7399L13.0401 41.6999L11.2401 39.3999C10.4401 38.3799 9.69012 38.5599 9.19012 38.8899C8.22012 39.5299 7.40012 39.8599 6.52012 39.9699L5.99012 39.2899L5.12012 39.9799L9.29012 45.3299L9.33012 45.3799L10.2201 44.6799L9.85012 44.2099L12.9901 41.7499V41.7399ZM9.07012 43.2199L7.34012 41.0099C8.12012 40.8899 8.88012 40.5699 9.82012 39.9599C9.92012 39.8899 10.1101 39.7599 10.4401 40.1899L11.3901 41.4099L9.07012 43.2299V43.2199Z" fill="var(--fill-0, #231F20)"/>
<path id="Vector_4" d="M18.5904 45.86L17.7704 45.27L13.0304 45.93L14.9604 43.25L13.9704 42.53L10.9804 46.68L10.9404 46.74L11.7504 47.32L16.4904 46.68L14.5704 49.35L15.5604 50.06L18.5504 45.91L18.5904 45.86Z" fill="var(--fill-0, #231F20)"/>
<path id="Vector_5" d="M22.5103 47.39C21.7203 47.08 20.8003 46.8 19.6803 46.52L19.4503 46.46L19.2103 47.5L19.4203 47.56C19.9003 47.71 21.1203 48.09 21.9503 48.41C22.3903 48.58 22.6503 48.74 22.7403 48.9C22.8203 49.05 22.7703 49.18 22.7103 49.33L22.6403 49.5L20.3503 48.61C19.2803 48.19 18.4503 48.43 18.1303 49.24L17.9403 49.72C17.5903 50.61 18.0803 51.44 19.2203 51.88C19.9803 52.18 20.9103 52.25 21.7703 52.08L21.6103 52.72L22.5603 53.09L22.6203 53.11L23.9103 49.8C24.4803 48.34 23.3803 47.72 22.5003 47.38L22.5103 47.39ZM22.0403 51.03C21.8003 51.08 21.5303 51.11 21.2603 51.11C20.7403 51.11 20.1903 51.01 19.7803 50.84C19.4503 50.71 19.2403 50.57 19.1803 50.41C19.1303 50.29 19.1703 50.18 19.2003 50.1L19.3103 49.82C19.3503 49.73 19.4003 49.58 19.6503 49.58C19.7703 49.58 19.9103 49.61 20.0803 49.67L22.2503 50.51L22.0503 51.02L22.0403 51.03Z" fill="var(--fill-0, #231F20)"/>
<path id="Vector_6" d="M32.8597 51.6401C33.2497 51.4401 33.4397 51.0901 33.4497 50.6001C33.4697 50.0001 33.2497 49.6101 32.7797 49.3701C32.3697 49.1601 31.7597 49.0601 30.7197 49.0401C29.6997 49.0101 29.1097 49.0001 28.3297 49.0401H28.1097L27.9697 54.1401V54.2001L28.1897 54.2201C29.0697 54.2901 29.7097 54.3201 30.9097 54.3501C31.0497 54.3501 31.1797 54.3501 31.2997 54.3501C32.0497 54.3501 32.5397 54.2801 32.8897 54.1201C33.3597 53.9101 33.5897 53.5301 33.6097 52.9501C33.6297 52.3101 33.3797 51.8801 32.8597 51.6401ZM29.3297 50.1101L30.6597 50.1501C32.0797 50.1901 32.1897 50.3801 32.1897 50.6401C32.1897 50.8601 32.1097 50.9401 31.9597 50.9901C31.7597 51.0701 31.4097 51.1001 30.8197 51.0801L29.2997 51.0401L29.3297 50.1101ZM30.8397 53.2201H30.5897C30.0697 53.2001 29.6097 53.1901 29.2397 53.1701L29.2697 52.0901L30.7897 52.1301C31.4197 52.1501 31.8297 52.2101 32.0597 52.3201C32.2397 52.4101 32.3097 52.5201 32.2997 52.7401C32.2997 53.0601 32.1797 53.2601 30.8397 53.2201Z" fill="var(--fill-0, #231F20)"/>
<path id="Vector_7" d="M40.2697 51.91C39.7197 52.1 38.9397 52.3199 38.2797 52.4599C37.0897 52.7199 36.6297 52.6 36.3397 51.95L38.9997 51.3699C39.5397 51.2499 39.9197 51.0199 40.1297 50.6899C40.3297 50.3699 40.3697 49.97 40.2597 49.49C40.0697 48.63 39.4397 48.2 38.3997 48.2C38.0497 48.2 37.6297 48.2499 37.1697 48.3499C36.1297 48.5799 35.4697 48.91 35.0997 49.41C34.7097 49.93 34.6297 50.6399 34.8397 51.6199C35.1697 53.1299 35.8697 53.7799 37.1897 53.7799C37.5497 53.7799 37.9497 53.73 38.4197 53.63C38.9597 53.51 40.1297 53.2 40.6697 52.86L40.8297 52.7599L40.4797 51.8499L40.2697 51.9199V51.91ZM37.4497 49.4799C37.7897 49.4099 38.0797 49.3699 38.2997 49.3699C38.8097 49.3699 38.9297 49.5699 38.9797 49.7799C39.0197 49.9199 39.0097 50.0399 38.9497 50.1199C38.8897 50.2199 38.7597 50.29 38.5597 50.33L36.0497 50.88C35.9597 50.06 36.2797 49.7299 37.4397 49.4799H37.4497Z" fill="var(--fill-0, #231F20)"/>
<path id="Vector_8" d="M45.4503 45.2L43.0303 46.4C42.1203 46.85 41.8103 47.48 42.0803 48.33L42.1303 48.47C42.3303 49.09 42.6403 50.0199 42.5903 50.6399C42.5703 50.9699 42.4703 51.18 42.0003 51.54L41.8203 51.68L42.4303 52.5499L42.6103 52.4599C43.4403 52.0399 43.8403 51.41 43.8303 50.56C43.8403 49.78 43.5503 48.86 43.3003 48.04L43.2803 47.9799C43.2003 47.6999 43.2103 47.5699 43.6403 47.3499L44.7803 46.79L46.5503 50.38L46.5803 50.4399L47.7503 49.86L45.4803 45.27L45.4503 45.2099V45.2Z" fill="var(--fill-0, #231F20)"/>
<path id="Vector_9" d="M50.6896 40.8799L49.9496 41.5199L49.9296 41.5399L49.4796 46.2699C49.4796 46.2699 49.4796 46.2899 49.4796 46.3099L47.3596 43.8499L47.3196 43.7999L46.3896 44.5999L49.7397 48.4699L49.7796 48.5199L50.5096 47.8899L50.5296 47.8699L50.9996 43.1099L53.1096 45.5599L53.1497 45.6099L54.0696 44.8099L50.7197 40.9399L50.6796 40.8899L50.6896 40.8799Z" fill="var(--fill-0, #231F20)"/>
<path id="Vector_10" d="M54.24 35.98L53.49 37.04L55.23 38.27C54.99 38.96 54.72 39.46 54.3 40.07C54.14 40.29 54.01 40.42 53.9 40.46C53.86 40.47 53.77 40.5 53.59 40.38L51.95 39.23L51.21 40.28L53.07 41.59C53.3 41.75 53.54 41.83 53.77 41.83C53.89 41.83 54.01 41.81 54.13 41.77C54.46 41.66 54.77 41.39 55.08 40.95C55.48 40.38 55.86 39.67 56.15 38.93L57.73 40.04L58.47 38.99L54.29 36.03L54.24 35.99V35.98Z" fill="var(--fill-0, #231F20)"/>
<path id="Vector_11" d="M56.8496 29.71L56.4996 30.63L56.4896 30.65L58.3496 35.07L55.3096 33.9L55.2496 33.88L54.8296 34.96L54.8096 35.02L59.5896 36.86L59.6496 36.89L59.9996 35.98L60.0096 35.96L58.1896 31.55L58.1796 31.53L61.1896 32.69L61.2496 32.72L61.6696 31.64L61.6896 31.58L56.9196 29.74L56.8496 29.71Z" fill="var(--fill-0, #231F20)"/>
<path id="Vector_12" d="M60.9405 25.19L62.6705 25.39L62.8205 24.12L57.7105 23.53L57.6705 23.74C57.5205 24.52 57.4505 25.05 57.3005 26.35C57.2005 27.2 57.2605 27.81 57.4905 28.23C57.7105 28.63 58.0905 28.86 58.6305 28.93C59.2805 29.01 59.7305 28.81 60.0405 28.32C60.1405 28.59 60.2905 28.81 60.5205 28.91C60.8905 29.08 61.0905 29.06 61.5205 29.32C61.7405 29.45 61.9005 29.6 62.0105 29.72L62.1805 29.68L62.3205 28.42C62.1005 28.12 61.6405 27.94 60.9905 27.73C60.7905 27.62 60.7105 27.24 60.7705 26.7L60.9405 25.2V25.19ZM59.6905 26.54C59.6305 27.06 59.5305 27.38 59.3905 27.54C59.3005 27.64 59.2005 27.68 59.0505 27.68C59.0005 27.68 58.9505 27.68 58.9005 27.67C58.5705 27.63 58.2905 27.6 58.4205 26.45L58.4605 26.08C58.5105 25.64 58.5605 25.24 58.6005 24.92L59.8605 25.07L59.6905 26.54Z" fill="var(--fill-0, #231F20)"/>
<path id="Vector_13" d="M31.5296 45.92C44.0596 45.92 54.2496 35.73 54.2496 23.2C54.2496 18.3 52.6796 13.76 50.0296 10.04C50.7796 9 51.2296 7.72 51.2296 6.34C51.2296 2.84 48.3896 0 44.8896 0C42.9896 0 41.2796 0.85 40.1196 2.17C37.4696 1.08 34.5696 0.48 31.5296 0.48C18.9996 0.48 8.80957 10.67 8.80957 23.2C8.80957 35.73 18.9996 45.92 31.5296 45.92ZM31.5296 2.49C34.1796 2.49 36.7096 3.01 39.0396 3.92C38.7296 4.67 38.5496 5.49 38.5496 6.35C38.5496 9.85 41.3896 12.69 44.8896 12.69C46.2696 12.69 47.5496 12.24 48.5896 11.49C50.8896 14.83 52.2396 18.86 52.2396 23.21C52.2396 34.63 42.9496 43.93 31.5196 43.93C20.0896 43.93 10.8096 34.62 10.8096 23.2C10.8096 11.78 20.1096 2.48 31.5296 2.48V2.49ZM42.0596 3.09C42.8196 2.43 43.8096 2.01 44.8896 2.01C47.2796 2.01 49.2296 3.96 49.2296 6.35C49.2296 7.08 49.0296 7.76 48.7096 8.37C48.5496 8.67 48.3596 8.96 48.1296 9.21C47.9096 9.46 47.6596 9.7 47.3796 9.89C46.6696 10.39 45.8196 10.68 44.8896 10.68C42.4996 10.68 40.5496 8.73 40.5496 6.34C40.5496 5.77 40.6696 5.23 40.8696 4.73C40.9996 4.41 41.1596 4.11 41.3596 3.83C41.5596 3.55 41.7996 3.3 42.0596 3.07V3.09Z" fill="var(--fill-0, #231F20)"/>
<path id="Vector_14" d="M27.8196 37.42C28.0896 40 30.2596 42.03 32.9196 42.03C35.7596 42.03 38.0696 39.72 38.0696 36.88C38.0696 36.71 38.0396 36.55 38.0196 36.38C42.8896 33.98 46.2496 28.98 46.2496 23.19C46.2496 15.08 39.6496 8.46997 31.5296 8.46997C23.4096 8.46997 16.8096 15.07 16.8096 23.19C16.8096 30.02 21.4996 35.76 27.8196 37.41V37.42ZM22.3796 14.39C24.1696 12.52 26.5296 11.21 29.1696 10.71L31.6296 17.5C31.6296 17.5 31.5596 17.5 31.5296 17.5C30.9096 17.5 30.3196 17.6 29.7596 17.78C29.8196 17.83 29.8896 17.88 29.9496 17.93C30.0296 18 30.1096 18.08 30.1796 18.16C30.5296 18.55 30.7796 19.02 30.8796 19.56C30.9096 19.74 30.9396 19.93 30.9396 20.12C30.9396 21.75 29.6196 23.07 27.9896 23.07C27.9396 23.07 27.8996 23.06 27.8496 23.06C27.3796 23.04 26.9396 22.91 26.5596 22.69C26.3296 22.56 26.1096 22.41 25.9296 22.23C25.5996 21.91 25.3596 21.5 25.2096 21.05L18.8396 23.36C18.8396 23.3 18.8396 23.25 18.8396 23.19C18.8396 20.51 19.6796 18.03 21.0896 15.98L25.7896 18.18C26.3296 17.56 27.1196 17.16 27.9996 17.16C28.1396 17.16 28.2796 17.18 28.4196 17.2L22.3996 14.38L22.3796 14.39ZM31.5296 10.48C34.1796 10.48 36.6396 11.3 38.6796 12.69L35.6196 19.23C35.4696 19.08 35.3196 18.93 35.1496 18.79C34.8696 18.56 34.5596 18.36 34.2296 18.19C34.1296 18.14 34.0396 18.08 33.9496 18.03L31.2096 10.49C31.3096 10.49 31.4196 10.47 31.5196 10.47L31.5296 10.48ZM44.0196 20.87L37.2196 23.34C37.2196 23.34 37.2196 23.24 37.2196 23.19C37.2196 22.51 37.0896 21.86 36.8696 21.25L40.2596 13.99C42.1596 15.8 43.5096 18.19 43.9996 20.87H44.0196ZM44.2396 23.19C44.2396 25.89 43.3896 28.39 41.9496 30.45L35.3896 27.38C35.4496 27.33 35.5096 27.28 35.5596 27.23C35.9496 26.84 36.2796 26.4 36.5396 25.92C36.5796 25.84 36.6196 25.76 36.6596 25.68L44.2296 22.93C44.2296 23.02 44.2396 23.11 44.2396 23.2V23.19ZM32.9096 40.03C31.4996 40.03 30.3196 39.09 29.9196 37.82C29.8296 37.52 29.7596 37.21 29.7596 36.88C29.7596 36.85 29.7596 36.82 29.7596 36.78C29.7696 36.44 29.8396 36.11 29.9496 35.8C30.1696 35.2 30.5596 34.69 31.0696 34.32C31.5896 33.95 32.2196 33.72 32.8996 33.72C32.9296 33.72 32.9496 33.72 32.9796 33.72C34.0796 33.75 35.0296 34.34 35.5696 35.21C35.7396 35.49 35.8796 35.8 35.9596 36.14C36.0196 36.37 36.0496 36.61 36.0496 36.86C36.0496 36.97 36.0296 37.07 36.0196 37.18C35.8596 38.77 34.5296 40.01 32.8996 40.01L32.9096 40.03ZM19.0096 25.41L25.8296 22.93C25.8296 23.02 25.8196 23.1 25.8196 23.18C25.8196 23.38 25.8196 23.57 25.8496 23.76C25.8896 24.14 25.9596 24.51 26.0696 24.86L22.6196 32.24C20.7696 30.42 19.4796 28.05 19.0096 25.39V25.41ZM27.2796 27C27.3496 27.07 27.4096 27.15 27.4796 27.22C27.8796 27.62 28.3496 27.96 28.8596 28.23L30.3796 32.41C29.2396 33.06 28.3796 34.12 27.9996 35.39C26.6296 34.99 25.3496 34.37 24.2096 33.57L27.2796 26.99V27ZM32.8996 31.73C32.6896 31.73 32.4796 31.77 32.2796 31.79L31.2196 28.88C31.3196 28.88 31.4096 28.89 31.5096 28.89C32.1296 28.89 32.7296 28.79 33.2796 28.6L40.6196 32.03C39.6896 32.99 38.5996 33.81 37.4096 34.44C36.5396 32.83 34.8496 31.72 32.8996 31.72V31.73Z" fill="var(--fill-0, #231F20)"/>
</g>
</svg>
