<svg preserveAspectRatio="none" width="100%" height="100%" overflow="visible" style="display: block;" viewBox="0 0 62.8205 54.3503" fill="none" xmlns="http://www.w3.org/2000/svg">
<g id="Group 1443">
<path id="Vector" d="M6.19 30.0703L6.05 29.1803C6.01 28.9103 5.83 28.7303 5.59 28.6903L2.67 27.6503C2.53 27.6003 2.37 27.5703 2.24 27.5403C2.39 27.4503 2.52 27.3703 2.63 27.2803L5.05 25.4603C5.39 25.2803 5.43 25.0303 5.4 24.8503L5.26 23.9503C5.21 23.6203 4.96 23.4303 4.65 23.4603L0 23.8803L0.19 25.1003L4.05 24.7503L1.36 26.7503C1.22 26.8603 1 27.0203 1.05 27.3503L1.16 28.0603C1.21 28.4003 1.48 28.4903 1.63 28.5403L4.79 29.6503L1.08 30.4603H1.02L1.21 31.7003L5.75 30.7103C6.07 30.6603 6.26 30.4003 6.21 30.0703H6.19Z" fill="var(--fill-0, #231F20)"/>
<path id="Vector_2" d="M5.27108 38C4.96108 37.5 4.57108 36.78 4.29108 36.18C3.77108 35.07 3.78108 34.61 4.35108 34.17L5.51108 36.63C5.75108 37.13 6.05108 37.45 6.43108 37.58C6.78108 37.7 7.19108 37.66 7.63108 37.44C8.70108 36.92 8.84108 35.85 8.05108 34.18C7.42108 32.85 6.73108 32.26 5.80108 32.26C5.38108 32.26 4.90108 32.39 4.35108 32.64C2.60108 33.46 2.27108 34.6 3.19108 36.58C3.42108 37.08 3.99108 38.15 4.45108 38.6L4.59108 38.74L5.40108 38.19L5.28108 38H5.27108ZM5.33108 33.66C6.11108 33.38 6.50108 33.63 7.01108 34.7C7.57108 35.88 7.33108 36.12 7.06108 36.26C6.93108 36.33 6.82108 36.35 6.72108 36.31C6.61108 36.27 6.51108 36.16 6.43108 35.98L5.34108 33.66H5.33108Z" fill="var(--fill-0, #231F20)"/>
<path id="Vector_3" d="M12.9911 41.7401L13.0411 41.7001L11.2411 39.4001C10.4411 38.3801 9.69109 38.5601 9.19109 38.8901C8.22109 39.5301 7.40109 39.8601 6.52109 39.9701L5.99109 39.2901L5.12109 39.9801L9.29109 45.3301L9.33109 45.3801L10.2211 44.6801L9.85109 44.2101L12.9911 41.7501V41.7401ZM9.07109 43.2201L7.34109 41.0101C8.12109 40.8901 8.88109 40.5701 9.82109 39.9601C9.92109 39.8901 10.1111 39.7601 10.4411 40.1901L11.3911 41.4101L9.07109 43.2301V43.2201Z" fill="var(--fill-0, #231F20)"/>
<path id="Vector_4" d="M18.5914 45.8605L17.7714 45.2705L13.0314 45.9305L14.9614 43.2505L13.9714 42.5305L10.9814 46.6805L10.9414 46.7405L11.7514 47.3205L16.4914 46.6805L14.5714 49.3505L15.5614 50.0605L18.5514 45.9105L18.5914 45.8605Z" fill="var(--fill-0, #231F20)"/>
<path id="Vector_5" d="M22.5093 47.3902C21.7193 47.0802 20.7993 46.8002 19.6793 46.5202L19.4493 46.4602L19.2093 47.5002L19.4193 47.5602C19.8993 47.7102 21.1193 48.0902 21.9493 48.4102C22.3893 48.5802 22.6493 48.7402 22.7393 48.9002C22.8193 49.0502 22.7693 49.1802 22.7093 49.3302L22.6393 49.5002L20.3493 48.6102C19.2793 48.1902 18.4493 48.4302 18.1293 49.2402L17.9393 49.7202C17.5893 50.6102 18.0793 51.4402 19.2193 51.8802C19.9793 52.1802 20.9093 52.2502 21.7693 52.0802L21.6093 52.7202L22.5593 53.0902L22.6193 53.1102L23.9093 49.8002C24.4793 48.3402 23.3793 47.7202 22.4993 47.3802L22.5093 47.3902ZM22.0393 51.0302C21.7993 51.0802 21.5293 51.1102 21.2593 51.1102C20.7393 51.1102 20.1893 51.0102 19.7793 50.8402C19.4493 50.7102 19.2393 50.5702 19.1793 50.4102C19.1293 50.2902 19.1693 50.1802 19.1993 50.1002L19.3093 49.8202C19.3493 49.7302 19.3993 49.5802 19.6493 49.5802C19.7693 49.5802 19.9093 49.6102 20.0793 49.6702L22.2493 50.5102L22.0493 51.0202L22.0393 51.0302Z" fill="var(--fill-0, #231F20)"/>
<path id="Vector_6" d="M32.8588 51.6403C33.2488 51.4403 33.4388 51.0903 33.4488 50.6003C33.4688 50.0003 33.2487 49.6103 32.7787 49.3703C32.3687 49.1603 31.7587 49.0603 30.7188 49.0403C29.6988 49.0103 29.1088 49.0003 28.3288 49.0403H28.1088L27.9688 54.1403V54.2003L28.1888 54.2203C29.0688 54.2903 29.7088 54.3203 30.9088 54.3503C31.0488 54.3503 31.1787 54.3503 31.2987 54.3503C32.0487 54.3503 32.5388 54.2803 32.8888 54.1203C33.3588 53.9103 33.5888 53.5303 33.6088 52.9503C33.6288 52.3103 33.3788 51.8803 32.8588 51.6403ZM29.3288 50.1103L30.6588 50.1503C32.0788 50.1903 32.1887 50.3803 32.1887 50.6403C32.1887 50.8603 32.1087 50.9403 31.9587 50.9903C31.7587 51.0703 31.4088 51.1003 30.8188 51.0803L29.2987 51.0403L29.3288 50.1103ZM30.8388 53.2203H30.5888C30.0688 53.2003 29.6088 53.1903 29.2388 53.1703L29.2688 52.0903L30.7888 52.1303C31.4188 52.1503 31.8288 52.2103 32.0588 52.3203C32.2388 52.4103 32.3087 52.5203 32.2987 52.7403C32.2987 53.0603 32.1788 53.2603 30.8388 53.2203Z" fill="var(--fill-0, #231F20)"/>
<path id="Vector_7" d="M40.2697 51.9104C39.7197 52.1004 38.9397 52.3204 38.2797 52.4604C37.0897 52.7204 36.6297 52.6004 36.3397 51.9504L38.9997 51.3704C39.5397 51.2504 39.9197 51.0204 40.1297 50.6904C40.3297 50.3704 40.3697 49.9704 40.2597 49.4904C40.0697 48.6304 39.4397 48.2004 38.3997 48.2004C38.0497 48.2004 37.6297 48.2504 37.1697 48.3504C36.1297 48.5804 35.4697 48.9104 35.0997 49.4104C34.7097 49.9304 34.6297 50.6404 34.8397 51.6204C35.1697 53.1304 35.8697 53.7804 37.1897 53.7804C37.5497 53.7804 37.9497 53.7304 38.4197 53.6304C38.9597 53.5104 40.1297 53.2004 40.6697 52.8604L40.8297 52.7604L40.4797 51.8504L40.2697 51.9204V51.9104ZM37.4497 49.4804C37.7897 49.4104 38.0797 49.3704 38.2997 49.3704C38.8097 49.3704 38.9297 49.5704 38.9797 49.7804C39.0197 49.9204 39.0097 50.0404 38.9497 50.1204C38.8897 50.2204 38.7597 50.2904 38.5597 50.3304L36.0497 50.8804C35.9597 50.0604 36.2797 49.7304 37.4397 49.4804H37.4497Z" fill="var(--fill-0, #231F20)"/>
<path id="Vector_8" d="M45.4503 45.2004L43.0303 46.4004C42.1203 46.8504 41.8103 47.4804 42.0803 48.3304L42.1303 48.4704C42.3303 49.0904 42.6403 50.0204 42.5903 50.6404C42.5703 50.9704 42.4703 51.1804 42.0003 51.5404L41.8203 51.6804L42.4303 52.5504L42.6103 52.4604C43.4403 52.0404 43.8403 51.4104 43.8303 50.5604C43.8403 49.7804 43.5503 48.8604 43.3003 48.0404L43.2803 47.9804C43.2003 47.7004 43.2103 47.5704 43.6403 47.3504L44.7803 46.7904L46.5503 50.3804L46.5803 50.4404L47.7503 49.8604L45.4803 45.2704L45.4503 45.2104V45.2004Z" fill="var(--fill-0, #231F20)"/>
<path id="Vector_9" d="M50.6906 40.8801L49.9506 41.5201L49.9306 41.5401L49.4806 46.2701C49.4806 46.2701 49.4806 46.2901 49.4806 46.3101L47.3606 43.8501L47.3206 43.8001L46.3906 44.6001L49.7406 48.4701L49.7806 48.5201L50.5106 47.8901L50.5306 47.8701L51.0006 43.1101L53.1106 45.5601L53.1506 45.6101L54.0706 44.8101L50.7206 40.9401L50.6806 40.8901L50.6906 40.8801Z" fill="var(--fill-0, #231F20)"/>
<path id="Vector_10" d="M54.2409 35.9807L53.4909 37.0407L55.2309 38.2707C54.9909 38.9607 54.7209 39.4607 54.3009 40.0707C54.1409 40.2907 54.0109 40.4207 53.9009 40.4607C53.8609 40.4707 53.7709 40.5007 53.5909 40.3807L51.9509 39.2307L51.2109 40.2807L53.0709 41.5907C53.3009 41.7507 53.5409 41.8307 53.7709 41.8307C53.8909 41.8307 54.0109 41.8107 54.1309 41.7707C54.4609 41.6607 54.7709 41.3907 55.0809 40.9507C55.4809 40.3807 55.8609 39.6707 56.1509 38.9307L57.7309 40.0407L58.4709 38.9907L54.2909 36.0307L54.2409 35.9907V35.9807Z" fill="var(--fill-0, #231F20)"/>
<path id="Vector_11" d="M56.8486 29.7102L56.4986 30.6302L56.4886 30.6502L58.3486 35.0702L55.3086 33.9002L55.2486 33.8802L54.8286 34.9602L54.8086 35.0202L59.5886 36.8602L59.6486 36.8902L59.9986 35.9802L60.0086 35.9602L58.1886 31.5502L58.1786 31.5302L61.1886 32.6902L61.2486 32.7202L61.6686 31.6402L61.6886 31.5802L56.9186 29.7402L56.8486 29.7102Z" fill="var(--fill-0, #231F20)"/>
<path id="Vector_12" d="M60.9405 25.1905L62.6705 25.3905L62.8205 24.1205L57.7105 23.5305L57.6705 23.7405C57.5205 24.5205 57.4505 25.0505 57.3005 26.3505C57.2005 27.2005 57.2605 27.8105 57.4905 28.2305C57.7105 28.6305 58.0905 28.8605 58.6305 28.9305C59.2805 29.0105 59.7305 28.8105 60.0405 28.3205C60.1405 28.5905 60.2905 28.8105 60.5205 28.9105C60.8905 29.0805 61.0905 29.0605 61.5205 29.3205C61.7405 29.4505 61.9005 29.6005 62.0105 29.7205L62.1805 29.6805L62.3205 28.4205C62.1005 28.1205 61.6405 27.9405 60.9905 27.7305C60.7905 27.6205 60.7105 27.2405 60.7705 26.7005L60.9405 25.2005V25.1905ZM59.6905 26.5405C59.6305 27.0605 59.5305 27.3805 59.3905 27.5405C59.3005 27.6405 59.2005 27.6805 59.0505 27.6805C59.0005 27.6805 58.9505 27.6805 58.9005 27.6705C58.5705 27.6305 58.2905 27.6005 58.4205 26.4505L58.4605 26.0805C58.5105 25.6405 58.5605 25.2405 58.6005 24.9205L59.8605 25.0705L59.6905 26.5405Z" fill="var(--fill-0, #231F20)"/>
<path id="Vector_13" d="M31.5286 45.92C44.0586 45.92 54.2486 35.73 54.2486 23.2C54.2486 18.3 52.6786 13.76 50.0286 10.04C50.7786 9 51.2286 7.72 51.2286 6.34C51.2286 2.84 48.3886 0 44.8886 0C42.9886 0 41.2786 0.85 40.1186 2.17C37.4686 1.08 34.5686 0.48 31.5286 0.48C18.9986 0.48 8.80859 10.67 8.80859 23.2C8.80859 35.73 18.9986 45.92 31.5286 45.92ZM31.5286 2.49C34.1786 2.49 36.7086 3.01 39.0386 3.92C38.7286 4.67 38.5486 5.49 38.5486 6.35C38.5486 9.85 41.3886 12.69 44.8886 12.69C46.2686 12.69 47.5486 12.24 48.5886 11.49C50.8886 14.83 52.2386 18.86 52.2386 23.21C52.2386 34.63 42.9486 43.93 31.5186 43.93C20.0886 43.93 10.8086 34.62 10.8086 23.2C10.8086 11.78 20.1086 2.48 31.5286 2.48V2.49ZM42.0586 3.09C42.8186 2.43 43.8086 2.01 44.8886 2.01C47.2786 2.01 49.2286 3.96 49.2286 6.35C49.2286 7.08 49.0286 7.76 48.7086 8.37C48.5486 8.67 48.3586 8.96 48.1286 9.21C47.9086 9.46 47.6586 9.7 47.3786 9.89C46.6686 10.39 45.8186 10.68 44.8886 10.68C42.4986 10.68 40.5486 8.73 40.5486 6.34C40.5486 5.77 40.6686 5.23 40.8686 4.73C40.9986 4.41 41.1586 4.11 41.3586 3.83C41.5586 3.55 41.7986 3.3 42.0586 3.07V3.09Z" fill="var(--fill-0, #231F20)"/>
<path id="Vector_14" d="M27.8186 37.4199C28.0886 39.9999 30.2586 42.0299 32.9186 42.0299C35.7586 42.0299 38.0686 39.7199 38.0686 36.8799C38.0686 36.7099 38.0386 36.5499 38.0186 36.3799C42.8886 33.9799 46.2486 28.9799 46.2486 23.1899C46.2486 15.0799 39.6486 8.46993 31.5286 8.46993C23.4086 8.46993 16.8086 15.0699 16.8086 23.1899C16.8086 30.0199 21.4986 35.7599 27.8186 37.4099V37.4199ZM22.3786 14.3899C24.1686 12.5199 26.5286 11.2099 29.1686 10.7099L31.6286 17.4999C31.6286 17.4999 31.5586 17.4999 31.5286 17.4999C30.9086 17.4999 30.3186 17.5999 29.7586 17.7799C29.8186 17.8299 29.8886 17.8799 29.9486 17.9299C30.0286 17.9999 30.1086 18.0799 30.1786 18.1599C30.5286 18.5499 30.7786 19.0199 30.8786 19.5599C30.9086 19.7399 30.9386 19.9299 30.9386 20.1199C30.9386 21.7499 29.6186 23.0699 27.9886 23.0699C27.9386 23.0699 27.8986 23.0599 27.8486 23.0599C27.3786 23.0399 26.9386 22.9099 26.5586 22.6899C26.3286 22.5599 26.1086 22.4099 25.9286 22.2299C25.5986 21.9099 25.3586 21.4999 25.2086 21.0499L18.8386 23.3599C18.8386 23.2999 18.8386 23.2499 18.8386 23.1899C18.8386 20.5099 19.6786 18.0299 21.0886 15.9799L25.7886 18.1799C26.3286 17.5599 27.1186 17.1599 27.9986 17.1599C28.1386 17.1599 28.2786 17.1799 28.4186 17.1999L22.3986 14.3799L22.3786 14.3899ZM31.5286 10.4799C34.1786 10.4799 36.6386 11.2999 38.6786 12.6899L35.6186 19.2299C35.4686 19.0799 35.3186 18.9299 35.1486 18.7899C34.8686 18.5599 34.5586 18.3599 34.2286 18.1899C34.1286 18.1399 34.0386 18.0799 33.9486 18.0299L31.2086 10.4899C31.3086 10.4899 31.4186 10.4699 31.5186 10.4699L31.5286 10.4799ZM44.0186 20.8699L37.2186 23.3399C37.2186 23.3399 37.2186 23.2399 37.2186 23.1899C37.2186 22.5099 37.0886 21.8599 36.8686 21.2499L40.2586 13.9899C42.1586 15.7999 43.5086 18.1899 43.9986 20.8699H44.0186ZM44.2386 23.1899C44.2386 25.8899 43.3886 28.3899 41.9486 30.4499L35.3886 27.3799C35.4486 27.3299 35.5086 27.2799 35.5586 27.2299C35.9486 26.8399 36.2786 26.3999 36.5386 25.9199C36.5786 25.8399 36.6186 25.7599 36.6586 25.6799L44.2286 22.9299C44.2286 23.0199 44.2386 23.1099 44.2386 23.1999V23.1899ZM32.9086 40.0299C31.4986 40.0299 30.3186 39.0899 29.9186 37.8199C29.8286 37.5199 29.7586 37.2099 29.7586 36.8799C29.7586 36.8499 29.7586 36.8199 29.7586 36.7799C29.7686 36.4399 29.8386 36.1099 29.9486 35.7999C30.1686 35.1999 30.5586 34.6899 31.0686 34.3199C31.5886 33.9499 32.2186 33.7199 32.8986 33.7199C32.9286 33.7199 32.9486 33.7199 32.9786 33.7199C34.0786 33.7499 35.0286 34.3399 35.5686 35.2099C35.7386 35.4899 35.8786 35.7999 35.9586 36.1399C36.0186 36.3699 36.0486 36.6099 36.0486 36.8599C36.0486 36.9699 36.0286 37.0699 36.0186 37.1799C35.8586 38.7699 34.5286 40.0099 32.8986 40.0099L32.9086 40.0299ZM19.0086 25.4099L25.8286 22.9299C25.8286 23.0199 25.8186 23.0999 25.8186 23.1799C25.8186 23.3799 25.8186 23.5699 25.8486 23.7599C25.8886 24.1399 25.9586 24.5099 26.0686 24.8599L22.6186 32.2399C20.7686 30.4199 19.4786 28.0499 19.0086 25.3899V25.4099ZM27.2786 26.9999C27.3486 27.0699 27.4086 27.1499 27.4786 27.2199C27.8786 27.6199 28.3486 27.9599 28.8586 28.2299L30.3786 32.4099C29.2386 33.0599 28.3786 34.1199 27.9986 35.3899C26.6286 34.9899 25.3486 34.3699 24.2086 33.5699L27.2786 26.9899V26.9999ZM32.8986 31.7299C32.6886 31.7299 32.4786 31.7699 32.2786 31.7899L31.2186 28.8799C31.3186 28.8799 31.4086 28.8899 31.5086 28.8899C32.1286 28.8899 32.7286 28.7899 33.2786 28.5999L40.6186 32.0299C39.6886 32.9899 38.5986 33.8099 37.4086 34.4399C36.5386 32.8299 34.8486 31.7199 32.8986 31.7199V31.7299Z" fill="var(--fill-0, #231F20)"/>
</g>
</svg>
