<svg preserveAspectRatio="none" width="100%" height="100%" overflow="visible" style="display: block;" viewBox="0 0 6.23817 7.01906" fill="none" xmlns="http://www.w3.org/2000/svg">
<path id="Vector" d="M4.68116 0.981614C3.89116 0.654409 2.97116 0.358871 1.85116 0.0633313L1.62116 0L1.38116 1.09772L1.59116 1.16105C2.07116 1.31938 3.29116 1.72046 4.12116 2.05822C4.56116 2.23766 4.82116 2.40654 4.91116 2.57542C4.99116 2.73374 4.94116 2.87096 4.88116 3.02928L4.81116 3.20872L2.52116 2.26932C1.45116 1.82601 0.621156 2.07933 0.301156 2.93429L0.111157 3.44093C-0.238843 4.38032 0.251156 5.25638 1.39116 5.7208C2.15116 6.03745 3.08116 6.11134 3.94116 5.9319L3.78116 6.60742L4.73116 6.99795L4.79116 7.01906L6.08116 3.52536C6.65116 1.98434 5.55116 1.32993 4.67116 0.97106L4.68116 0.981614ZM4.21116 4.82363C3.97116 4.8764 3.70116 4.90807 3.43116 4.90807C2.91116 4.90807 2.36116 4.80252 1.95116 4.62308C1.62116 4.48587 1.41116 4.3381 1.35116 4.16922C1.30116 4.04256 1.34116 3.92645 1.37116 3.84201L1.48116 3.54647C1.52116 3.45148 1.57116 3.29316 1.82116 3.29316C1.94116 3.29316 2.08116 3.32482 2.25116 3.38815L4.42116 4.27477L4.22116 4.81307L4.21116 4.82363Z" fill="var(--fill-0, #231F20)"/>
</svg>
