<svg preserveAspectRatio="none" width="100%" height="100%" overflow="visible" style="display: block;" viewBox="0 0 6.21794 8.70057" fill="none" xmlns="http://www.w3.org/2000/svg">
<path id="Vector" d="M6.19 6.98011L6.05 6.04072C6.01 5.75573 5.83 5.56574 5.59 5.52352L2.67 4.4258C2.53 4.37303 2.37 4.34137 2.24 4.3097C2.39 4.21471 2.52 4.13027 2.63 4.03527L5.05 2.11426C5.39 1.92427 5.43 1.6604 5.4 1.47041L5.26 0.520462C5.21 0.172147 4.96 -0.0283992 4.65 0.00326571L0 0.446575L0.19 1.73428L4.05 1.36486L1.36 3.47586C1.22 3.59196 1 3.76084 1.05 4.10915L1.16 4.85856C1.21 5.21743 1.48 5.31242 1.63 5.3652L4.79 6.5368L1.08 7.39175H1.02L1.21 8.70057L5.75 7.65563C6.07 7.60285 6.26 7.32842 6.21 6.98011H6.19Z" fill="var(--fill-0, #231F20)"/>
</svg>
