<svg preserveAspectRatio="none" width="100%" height="100%" overflow="visible" style="display: block;" viewBox="0 0 43.4933 43.4933" fill="none" xmlns="http://www.w3.org/2000/svg">
<path id="Vector" d="M32.9479 0H10.5454C4.72183 0 0 4.72183 0 10.5454V32.9479C0 38.7715 4.72183 43.4933 10.5454 43.4933H32.9479C38.7715 43.4933 43.4933 38.7715 43.4933 32.9479V10.5454C43.4933 4.72183 38.7715 0 32.9479 0ZM39.9956 32.9479C39.9956 36.8303 36.839 39.9956 32.9479 39.9956H10.5454C6.66303 39.9956 3.49765 36.839 3.49765 32.9479V10.5454C3.49765 6.66303 6.65428 3.49765 10.5454 3.49765H22.0265C22.315 5.26396 22.8134 6.96907 23.4955 8.56925H25.4367H27.7451C29.1092 8.56925 30.3159 8.7179 31.3564 9.02394H31.4002L31.4439 9.05017C32.5369 9.41743 33.49 9.97705 34.3207 10.7728L34.3644 10.8165L34.4081 10.8602C35.1951 11.6822 35.7722 12.644 36.1132 13.7633C36.428 14.7951 36.5767 16.0192 36.5767 17.4008V19.0272C36.5767 19.5606 36.5592 20.0853 36.5067 20.6012C37.626 20.9772 38.789 21.2657 39.9869 21.4581V32.9391L39.9956 32.9479Z" fill="var(--fill-0, #D9D9D9)"/>
</svg>
