<svg preserveAspectRatio="none" width="100%" height="100%" overflow="visible" style="display: block;" viewBox="0 0 7.26 6.17467" fill="none" xmlns="http://www.w3.org/2000/svg">
<path id="Vector" d="M3.03 0L2.28 1.11883L4.02 2.41709C3.78 3.14539 3.51 3.67313 3.09 4.31699C2.93 4.5492 2.8 4.68641 2.69 4.72863C2.65 4.73919 2.56 4.77085 2.38 4.64419L0.740002 3.43037L0 4.53864L1.86 5.92135C2.09 6.09023 2.33 6.17467 2.56 6.17467C2.68 6.17467 2.8 6.15356 2.92 6.11134C3.25 5.99523 3.56 5.71025 3.87 5.24583C4.27 4.64419 4.65 3.89479 4.94 3.11372L6.52 4.28532L7.26 3.17705L3.08 0.0527741L3.03 0.0105572V0Z" fill="var(--fill-0, #231F20)"/>
</svg>
