<svg preserveAspectRatio="none" width="100%" height="100%" overflow="visible" style="display: block;" viewBox="0 0 858.46 858.46" fill="none" xmlns="http://www.w3.org/2000/svg">
<g id="Group 1709">
<path id="Vector" d="M429.23 857.96C666.011 857.96 857.96 666.011 857.96 429.23C857.96 192.449 666.011 0.5 429.23 0.5C192.449 0.5 0.5 192.449 0.5 429.23C0.5 666.011 192.449 857.96 429.23 857.96Z" stroke="var(--stroke-0, #7C7C7C)" stroke-miterlimit="10"/>
<path id="Vector_2" d="M429.231 791.865C629.509 791.865 791.866 629.508 791.866 429.23C791.866 228.952 629.509 66.5949 429.231 66.5949C228.953 66.5949 66.5956 228.952 66.5956 429.23C66.5956 629.508 228.953 791.865 429.231 791.865Z" stroke="var(--stroke-0, #7C7C7C)" stroke-miterlimit="10"/>
<path id="Vector_3" d="M429.229 677.6C566.4 677.6 677.599 566.401 677.599 429.23C677.599 292.059 566.4 180.86 429.229 180.86C292.058 180.86 180.859 292.059 180.859 429.23C180.859 566.401 292.058 677.6 429.229 677.6Z" stroke="var(--stroke-0, #7C7C7C)" stroke-miterlimit="10"/>
<path id="Vector_4" d="M429.23 596.453C521.585 596.453 596.454 521.584 596.454 429.229C596.454 336.874 521.585 262.005 429.23 262.005C336.875 262.005 262.007 336.874 262.007 429.229C262.007 521.584 336.875 596.453 429.23 596.453Z" stroke="var(--stroke-0, #7C7C7C)" stroke-miterlimit="10"/>
<path id="Vector_5" d="M534.732 432.048C536.268 373.793 490.288 325.323 432.033 323.787C373.778 322.252 325.309 368.232 323.773 426.487C322.237 484.741 368.217 533.211 426.472 534.747C484.727 536.282 533.197 490.302 534.732 432.048Z" stroke="var(--stroke-0, #7C7C7C)" stroke-miterlimit="10"/>
<path id="Vector_6" d="M416.623 323.817L439.324 386.339" stroke="var(--stroke-0, #7C7C7C)" stroke-miterlimit="10"/>
<path id="Vector_7" d="M417.607 471.912L440.294 534.422" stroke="var(--stroke-0, #7C7C7C)" stroke-miterlimit="10"/>
<path id="Vector_8" d="M323.688 440.722L385.745 418.19" stroke="var(--stroke-0, #7C7C7C)" stroke-miterlimit="10"/>
<path id="Vector_9" d="M471.253 439.984L533.763 417.284" stroke="var(--stroke-0, #7C7C7C)" stroke-miterlimit="10"/>
<path id="Vector_10" d="M346.466 363.419L405.896 391.192" stroke="var(--stroke-0, #7C7C7C)" stroke-miterlimit="10"/>
<path id="Vector_11" d="M451.036 467.059L511.294 495.208" stroke="var(--stroke-0, #7C7C7C)" stroke-miterlimit="10"/>
<path id="Vector_12" d="M362.669 511.32L390.534 451.696" stroke="var(--stroke-0, #7C7C7C)" stroke-miterlimit="10"/>
<path id="Vector_13" d="M466.4 406.516L494.51 346.362" stroke="var(--stroke-0, #7C7C7C)" stroke-miterlimit="10"/>
<path id="Vector_14" d="M473.111 430.422C473.75 406.2 454.631 386.046 430.409 385.407C406.187 384.769 386.033 403.887 385.395 428.11C384.756 452.332 403.875 472.485 428.097 473.124C452.319 473.762 472.473 454.644 473.111 430.422Z" stroke="var(--stroke-0, #7C7C7C)" stroke-miterlimit="10"/>
<path id="Vector_15" d="M569.349 304.425C569.94 282.025 552.259 263.388 529.859 262.797C507.459 262.207 488.822 279.887 488.231 302.287C487.641 324.687 505.321 343.325 527.721 343.915C550.121 344.506 568.759 326.825 569.349 304.425Z" fill="var(--fill-0, #262626)" stroke="var(--stroke-0, #7C7C7C)" stroke-miterlimit="10"/>
<path id="Vector_16" d="M481.564 531.27C482.029 513.643 468.116 498.976 450.489 498.512C432.861 498.047 418.195 511.96 417.73 529.587C417.266 547.214 431.179 561.881 448.806 562.345C466.433 562.81 481.099 548.897 481.564 531.27Z" fill="var(--fill-0, #262626)" stroke="var(--stroke-0, #7C7C7C)" stroke-miterlimit="10"/>
<path id="Vector_17" d="M203.69 478.917C203.939 469.485 196.494 461.637 187.063 461.389C177.631 461.14 169.783 468.585 169.535 478.016C169.286 487.448 176.731 495.295 186.162 495.544C195.594 495.793 203.441 488.348 203.69 478.917Z" fill="var(--fill-0, #262626)" stroke="var(--stroke-0, #7C7C7C)" stroke-miterlimit="10"/>
<path id="Vector_18" d="M685.506 694.903C685.665 688.879 680.911 683.868 674.888 683.709C668.864 683.55 663.853 688.304 663.694 694.328C663.535 700.351 668.289 705.363 674.313 705.522C680.336 705.68 685.348 700.926 685.506 694.903Z" fill="var(--fill-0, #262626)" stroke="var(--stroke-0, #7C7C7C)" stroke-miterlimit="10"/>
<path id="Vector_19" d="M301.476 26.7776C301.77 15.6096 292.955 6.31759 281.787 6.02319C270.619 5.7288 261.327 14.5436 261.033 25.7115C260.739 36.8794 269.553 46.1715 280.721 46.4659C291.889 46.7603 301.181 37.9455 301.476 26.7776Z" fill="var(--fill-0, #262626)" stroke="var(--stroke-0, #7C7C7C)" stroke-miterlimit="10"/>
<path id="Vector_20" d="M424.775 405.83C425.125 392.547 414.641 381.496 401.358 381.145C388.075 380.795 377.023 391.279 376.673 404.562C376.323 417.845 386.807 428.897 400.09 429.247C413.373 429.597 424.425 419.113 424.775 405.83Z" fill="var(--fill-0, #262626)" stroke="var(--stroke-0, #7C7C7C)" stroke-miterlimit="10"/>
</g>
</svg>
