<svg preserveAspectRatio="none" width="100%" height="100%" overflow="visible" style="display: block;" viewBox="0 0 45.44 48.4685" fill="none" xmlns="http://www.w3.org/2000/svg">
<path id="Vector" d="M22.72 48.4685C35.25 48.4685 45.44 37.713 45.44 24.4876C45.44 19.3156 43.87 14.5237 41.22 10.5972C41.97 9.49948 42.42 8.14845 42.42 6.69186C42.42 2.99762 39.58 0 36.08 0C34.18 0 32.47 0.897174 31.31 2.29043C28.66 1.13994 25.76 0.506639 22.72 0.506639C10.19 0.506639 0 11.2622 0 24.4876C0 37.713 10.19 48.4685 22.72 48.4685ZM22.72 2.62819C25.37 2.62819 27.9 3.17705 30.23 4.13755C29.92 4.92918 29.74 5.79469 29.74 6.70241C29.74 10.3967 32.58 13.3943 36.08 13.3943C37.46 13.3943 38.74 12.9193 39.78 12.1277C42.08 15.653 43.43 19.9067 43.43 24.4981C43.43 36.5519 34.14 46.368 22.71 46.368C11.28 46.368 2 36.5414 2 24.4876C2 12.4338 11.3 2.61764 22.72 2.61764V2.62819ZM33.25 3.26149C34.01 2.56486 35 2.12155 36.08 2.12155C38.47 2.12155 40.42 4.17977 40.42 6.70241C40.42 7.47293 40.22 8.19067 39.9 8.83452C39.74 9.15117 39.55 9.45726 39.32 9.72114C39.1 9.98501 38.85 10.2383 38.57 10.4389C37.86 10.9666 37.01 11.2727 36.08 11.2727C33.69 11.2727 31.74 9.2145 31.74 6.69186C31.74 6.09023 31.86 5.52026 32.06 4.99251C32.19 4.65475 32.35 4.3381 32.55 4.04256C32.75 3.74702 32.99 3.48314 33.25 3.24038V3.26149Z" fill="var(--fill-0, #231F20)"/>
</svg>
