<svg preserveAspectRatio="none" width="100%" height="100%" overflow="visible" style="display: block;" viewBox="0 0 6.10312 5.88968" fill="none" xmlns="http://www.w3.org/2000/svg">
<path id="Vector" d="M5.54312 3.9159C4.99312 4.11644 4.21312 4.34865 3.55312 4.49642C2.36312 4.77085 1.90312 4.64419 1.61312 3.95812L4.27312 3.34593C4.81312 3.21927 5.19312 2.9765 5.40312 2.62819C5.60312 2.29043 5.64312 1.86823 5.53312 1.36159C5.34312 0.453865 4.71312 0 3.67312 0C3.32312 0 2.90312 0.0527725 2.44312 0.158322C1.40312 0.401087 0.743119 0.749403 0.373119 1.27715C-0.0168814 1.82601 -0.0968797 2.57541 0.11312 3.6098C0.44312 5.2036 1.14312 5.88968 2.46312 5.88968C2.82312 5.88968 3.22312 5.83691 3.69312 5.73136C4.23312 5.6047 5.40312 5.27749 5.94312 4.91862L6.10312 4.81307L5.75312 3.85257L5.54312 3.92645V3.9159ZM2.72312 1.35104C3.06312 1.27715 3.35312 1.23493 3.57312 1.23493C4.08312 1.23493 4.20312 1.44603 4.25312 1.66769C4.29312 1.81545 4.28312 1.94211 4.22312 2.02655C4.16312 2.1321 4.03312 2.20599 3.83312 2.24821L1.32312 2.82874C1.23312 1.96323 1.55312 1.61491 2.71312 1.35104H2.72312Z" fill="var(--fill-0, #231F20)"/>
</svg>
