<svg preserveAspectRatio="none" width="100%" height="100%" overflow="visible" style="display: block;" viewBox="0 0 24.5826 20.8932" fill="none" xmlns="http://www.w3.org/2000/svg">
<path id="Vector" d="M1.50402 9.10049C1.50402 9.10049 12.373 4.51711 16.1504 2.89944C17.5932 2.25238 22.4987 0.185364 22.4987 0.185364C22.4987 0.185364 24.7634 -0.722325 24.571 1.47949C24.5098 2.38718 24.0027 5.55061 23.5042 8.97467C22.7523 13.8187 21.9303 19.112 21.9303 19.112C21.9303 19.112 21.8079 20.5949 20.7324 20.8555C19.6656 21.1161 17.908 19.9478 17.5932 19.6962C17.3396 19.4985 12.8801 16.5957 11.245 15.1757C10.8078 14.7893 10.3006 14.0164 11.3062 13.1087C13.5709 10.9788 16.2729 8.3276 17.908 6.64703C18.66 5.87415 19.412 4.06776 16.2729 6.26059C11.8134 9.42402 7.41505 12.3987 7.41505 12.3987C7.41505 12.3987 6.40948 13.0458 4.52075 12.4616C2.63202 11.8775 0.43724 11.1046 0.43724 11.1046C0.43724 11.1046 -1.06675 10.134 1.50402 9.10049Z" fill="var(--fill-0, #7C7C7C)"/>
</svg>
