<svg preserveAspectRatio="none" width="100%" height="100%" overflow="visible" style="display: block;" viewBox="0 0 73.1817 36" fill="none" xmlns="http://www.w3.org/2000/svg">
<g id="Group 1727">
<path id="Vector" d="M7.21091 7.70385L7.04782 6.66706C7.00123 6.35253 6.79154 6.14284 6.51195 6.09624L3.11036 4.88472C2.94727 4.82647 2.76088 4.79152 2.60944 4.75657C2.78418 4.65173 2.93562 4.55854 3.06376 4.45369L5.88289 2.33352C6.27897 2.12383 6.32557 1.8326 6.29062 1.62291L6.12753 0.574477C6.06928 0.19005 5.77805 -0.0312863 5.41692 0.00366154L0 0.504581L0.221337 1.9258L4.71796 1.51807L1.5843 3.84793C1.42121 3.97607 1.16493 4.16246 1.22318 4.54689L1.35132 5.37399C1.40956 5.77006 1.7241 5.87491 1.89883 5.93315L5.58001 7.22622L1.25812 8.16982H1.18823L1.40956 9.61433L6.69834 8.46105C7.07112 8.4028 7.29246 8.09992 7.23421 7.71549L7.21091 7.70385Z" fill="var(--fill-0, white)"/>
<path id="Vector_2" d="M6.1393 16.9419C5.77818 16.3594 5.32385 15.5207 4.99767 14.8217C4.39191 13.5286 4.40356 12.9928 5.06757 12.4802L6.41889 15.3459C6.69847 15.9284 7.04795 16.3012 7.49062 16.4526C7.89835 16.5924 8.37597 16.5458 8.88854 16.2895C10.135 15.6838 10.2981 14.4373 9.37781 12.4919C8.6439 10.9425 7.8401 10.2552 6.75672 10.2552C6.26745 10.2552 5.70828 10.4066 5.06757 10.6979C3.02894 11.6531 2.64452 12.9811 3.71625 15.2877C3.98418 15.8702 4.64819 17.1166 5.18406 17.6408L5.34715 17.8039L6.29074 17.1632L6.15095 16.9419H6.1393ZM8.22453 14.9266C8.07309 15.0081 7.94494 15.0314 7.82845 14.9848C7.70031 14.9382 7.58382 14.8101 7.49062 14.6004L6.22085 11.8977C7.12949 11.5716 7.58382 11.8628 8.17793 13.1093C8.83029 14.4839 8.55071 14.7635 8.23618 14.9266H8.22453Z" fill="var(--fill-0, white)"/>
<path id="Vector_3" d="M15.1323 21.3101L15.1905 21.2635L13.0937 18.5842C12.1617 17.3959 11.288 17.6056 10.7055 17.99C9.57557 18.7356 8.62033 19.12 7.59519 19.2482L6.97778 18.456L5.96429 19.2598L10.822 25.4922L10.8686 25.5504L11.9054 24.735L11.4744 24.1875L15.1323 21.3217V21.3101ZM12.1617 19.5045L13.2684 20.9257L10.5658 23.0458L8.55043 20.4713C9.45908 20.3316 10.3444 19.9588 11.4395 19.2482C11.5559 19.1666 11.7773 19.0152 12.1617 19.5161V19.5045Z" fill="var(--fill-0, white)"/>
<path id="Vector_4" d="M21.6569 26.098L20.7017 25.4107L15.1799 26.1912L17.4282 23.0575L16.275 22.2304L12.7918 27.0649L12.7452 27.1231L13.6888 27.8104L19.2106 27.0532L16.9739 30.1636L18.1272 31.0023L21.6103 26.1679L21.6569 26.098Z" fill="var(--fill-0, white)"/>
<path id="Vector_5" d="M26.2236 27.8804C25.3033 27.5192 24.2316 27.1931 22.9268 26.8669L22.6589 26.797L22.3793 28.0085L22.6239 28.0784C23.1831 28.2531 24.6043 28.6958 25.5712 29.0686C26.0838 29.2666 26.3867 29.453 26.4915 29.6394C26.5847 29.8141 26.5265 29.9656 26.4566 30.1403L26.375 30.3384L23.7073 29.3016C22.4609 28.8123 21.494 29.0919 21.1212 30.0355L20.8999 30.5946C20.4921 31.6314 21.0629 32.5983 22.391 33.1109C23.2763 33.4604 24.3597 33.5419 25.3615 33.3439L25.1751 34.0894L26.2818 34.5205L26.3517 34.5438L27.8545 30.6878C28.5185 28.987 27.2371 28.2648 26.2119 27.8687L26.2236 27.8804ZM22.8919 30.4432C23.0317 30.4432 23.1948 30.4782 23.3928 30.548L25.9207 31.5266L25.6877 32.1207C25.4081 32.1789 25.0936 32.2139 24.7791 32.2139C24.1733 32.2139 23.5326 32.0974 23.055 31.8994C22.6705 31.7479 22.4259 31.5848 22.356 31.3984C22.2978 31.2587 22.3444 31.1305 22.3793 31.0373L22.5075 30.7111C22.5541 30.6063 22.6123 30.4316 22.9035 30.4316L22.8919 30.4432Z" fill="var(--fill-0, white)"/>
<path id="Vector_6" d="M38.2795 32.843C38.7338 32.6101 38.9551 32.2023 38.9668 31.6315C38.9901 30.9326 38.7338 30.4782 38.1863 30.1987C37.7086 29.954 36.998 29.8375 35.7865 29.8142C34.5983 29.7793 33.911 29.7676 33.0023 29.8142H32.746L32.583 35.7554V35.8253L32.8392 35.8486C33.8644 35.9301 34.6099 35.9651 36.0078 36C36.1709 36 36.3224 36 36.4622 36C37.3359 36 37.9067 35.9185 38.3144 35.7321C38.8619 35.4874 39.1299 35.0448 39.1532 34.3691C39.1765 33.6235 38.8852 33.1226 38.2795 32.843ZM37.6387 34.1245C37.6387 34.4972 37.499 34.7302 35.9379 34.6836H35.6467C35.041 34.6603 34.5051 34.6487 34.0741 34.6254L34.109 33.3673L35.8797 33.4139C36.6136 33.4372 37.0912 33.5071 37.3592 33.6352C37.5688 33.74 37.6504 33.8682 37.6387 34.1245ZM37.2427 32.0858C37.0097 32.179 36.602 32.214 35.9146 32.1907L34.144 32.1441L34.1789 31.0607L35.7283 31.1073C37.3825 31.1539 37.5106 31.3752 37.5106 31.6781C37.5106 31.9344 37.4174 32.0276 37.2427 32.0858Z" fill="var(--fill-0, white)"/>
<path id="Vector_7" d="M46.911 33.1576C46.2703 33.379 45.3617 33.6353 44.5928 33.7984C43.2066 34.1012 42.6707 33.9615 42.3329 33.2042L45.4316 32.5286C46.0606 32.3888 46.5033 32.1209 46.7479 31.7364C46.9809 31.3637 47.0275 30.8977 46.8994 30.3385C46.678 29.3367 45.9441 28.8358 44.7326 28.8358C44.3249 28.8358 43.8356 28.894 43.2998 29.0105C42.0882 29.2784 41.3194 29.6629 40.8883 30.2453C40.434 30.8511 40.3408 31.6782 40.5855 32.8198C40.9699 34.5789 41.7853 35.3361 43.323 35.3361C43.7424 35.3361 44.2084 35.2778 44.7559 35.1613C45.385 35.0215 46.7479 34.6604 47.377 34.2643L47.5634 34.1478L47.1557 33.0878L46.911 33.1693V33.1576ZM43.6259 30.3269C44.022 30.2453 44.3598 30.1987 44.6161 30.1987C45.2102 30.1987 45.35 30.4317 45.4083 30.6764C45.4549 30.8394 45.4432 30.9792 45.3733 31.0724C45.3034 31.1889 45.152 31.2705 44.919 31.3171L41.995 31.9578C41.8902 31.0025 42.263 30.6181 43.6143 30.3269H43.6259Z" fill="var(--fill-0, white)"/>
<path id="Vector_8" d="M52.9456 25.3408L50.1265 26.7387C49.0664 27.263 48.7053 27.9969 49.0198 28.9871L49.078 29.1501C49.311 29.8724 49.6722 30.9558 49.6139 31.678C49.5906 32.0625 49.4741 32.3071 48.9266 32.7265L48.7169 32.8896L49.4275 33.9031L49.6372 33.7982C50.6041 33.3089 51.0701 32.575 51.0584 31.5848C51.0701 30.6762 50.7322 29.6045 50.441 28.6492L50.4177 28.5793C50.3245 28.2531 50.3362 28.1017 50.8371 27.8454L52.1651 27.1931L54.227 31.3752L54.262 31.4451L55.625 30.7694L52.9806 25.4224L52.9456 25.3525V25.3408Z" fill="var(--fill-0, white)"/>
<path id="Vector_9" d="M59.0496 20.3084L58.1876 21.054L58.1643 21.0773L57.6401 26.5874C57.6401 26.5874 57.6401 26.6107 57.6401 26.634L55.1704 23.7683L55.1238 23.71L54.0405 24.642L57.943 29.1502L57.9896 29.2085L58.84 28.4746L58.8633 28.4513L59.4108 22.9062L61.8688 25.7603L61.9154 25.8185L62.9871 24.8866L59.0846 20.3783L59.038 20.3201L59.0496 20.3084Z" fill="var(--fill-0, white)"/>
<path id="Vector_10" d="M63.1856 14.6002L62.3119 15.8351L64.3389 17.2679C64.0593 18.0717 63.7448 18.6542 63.2555 19.3648C63.0691 19.6211 62.9177 19.7725 62.7895 19.8191C62.7429 19.8308 62.6381 19.8657 62.4284 19.7259L60.5179 18.3863L59.6559 19.6094L61.8226 21.1355C62.0906 21.3219 62.3702 21.4151 62.6381 21.4151C62.7779 21.4151 62.9177 21.3918 63.0575 21.3452C63.4419 21.217 63.803 20.9025 64.1641 20.3899C64.6301 19.7259 65.0728 18.8988 65.4106 18.0368L67.2512 19.3299L68.1133 18.1067L63.2438 14.6585L63.1856 14.6119V14.6002Z" fill="var(--fill-0, white)"/>
<path id="Vector_11" d="M66.2252 7.2962L65.8175 8.35628L65.8058 8.39123L67.9726 13.5402L64.4312 12.1773L64.3613 12.154L63.872 13.4121L63.8487 13.482L69.4171 15.6254L69.487 15.6487L69.8947 14.6003L69.9064 14.5654L67.7862 9.43967L67.7746 9.41637L71.281 10.7677L71.3509 10.8026L71.8402 9.54451L71.8635 9.46297L66.3067 7.3195L66.2252 7.2962Z" fill="var(--fill-0, white)"/>
<path id="Vector_12" d="M67.2287 0.096753L67.1821 0.341388C67.0073 1.25003 66.9258 1.86745 66.7511 3.38185C66.6346 4.37204 66.7045 5.08265 66.9724 5.57192C67.2287 6.03789 67.6713 6.30583 68.3004 6.38737C69.0576 6.48057 69.5818 6.24758 69.943 5.67676C70.0595 5.9913 70.2342 6.24758 70.5021 6.36407C70.9331 6.56211 71.1661 6.53881 71.6671 6.84169C71.9233 6.99313 72.1097 7.16787 72.2379 7.30767L72.4359 7.26107L72.599 5.79326C72.3427 5.44378 71.8068 5.23409 71.0496 4.98946C70.8167 4.86131 70.7235 4.41864 70.7934 3.78958L70.9914 2.04218L73.0067 2.27517L73.1815 0.795711L67.2287 0.096753ZM69.5352 3.60319C69.4653 4.20895 69.3488 4.58173 69.1858 4.76812C69.0809 4.88461 68.9644 4.93121 68.7897 4.93121C68.7314 4.93121 68.6732 4.93121 68.6149 4.91956C68.2305 4.87296 67.9043 4.83802 68.0558 3.49835L68.1024 3.06732C68.1606 2.55475 68.2189 2.08878 68.2655 1.716L69.7333 1.89074L69.5352 3.60319Z" fill="var(--fill-0, white)"/>
</g>
</svg>
