<svg preserveAspectRatio="none" width="100%" height="100%" overflow="visible" style="display: block;" viewBox="0 0 25.4997 26.1939" fill="none" xmlns="http://www.w3.org/2000/svg">
<path id="Vector" d="M25.3624 19.4137C25.3673 19.3634 25.3722 19.313 25.3771 19.2676C25.3918 19.1316 25.4016 18.9906 25.4163 18.8496C25.4212 18.7841 25.4261 18.7186 25.431 18.6481C25.4409 18.5121 25.4507 18.376 25.4556 18.23C25.4556 18.1645 25.4605 18.104 25.4654 18.0386C25.4752 17.8774 25.4801 17.7162 25.485 17.555C25.485 17.5247 25.485 17.4945 25.485 17.4693C25.4948 17.1067 25.4997 16.7339 25.4997 16.346V9.84791C25.4997 9.47011 25.4948 9.10743 25.485 8.75482C25.485 8.69437 25.485 8.63392 25.485 8.57347C25.485 8.44754 25.4752 8.32161 25.4703 8.19568C25.4703 8.09997 25.4605 7.99922 25.4556 7.90351C25.4507 7.79773 25.4409 7.69699 25.436 7.5912C25.431 7.49046 25.4212 7.38467 25.4163 7.28896C25.4065 7.18318 25.3967 7.0774 25.3869 6.97162C25.3771 6.88598 25.3722 6.80538 25.3624 6.71975C25.3477 6.59382 25.333 6.47796 25.3182 6.35707C25.3133 6.30165 25.3035 6.25128 25.2986 6.19587C25.279 6.04979 25.2545 5.90371 25.23 5.76266C25.23 5.74755 25.225 5.7274 25.2201 5.71229C24.4452 1.27947 21.9585 0 15.9159 0H9.58875C1.9717 0 0 2.02499 0 9.84791V16.346C0 24.1689 1.9717 26.1939 9.58875 26.1939H15.9159C22.1988 26.1939 24.6365 24.8137 25.2986 19.9376C25.2986 19.9175 25.3035 19.8973 25.3084 19.8772C25.328 19.726 25.3477 19.5699 25.3624 19.4137ZM1.96189 16.346V9.84791C1.96189 4.77032 2.57008 2.89644 5.68459 2.28189C4.43388 3.78805 4.00226 6.18076 4.00226 9.84791V16.346C4.00226 20.0132 4.43878 22.4008 5.68459 23.912C2.57008 23.2975 1.96189 21.4286 1.96189 16.346ZM13.6303 24.179C7.03829 24.179 5.96416 23.0809 5.96416 16.346V9.84791C5.96416 3.11305 7.03829 2.01492 13.6303 2.01492H15.8717C22.3165 2.01492 23.4642 3.10801 23.5329 9.31899C23.5329 9.4953 23.5329 9.66657 23.5329 9.84791V16.8397C23.4642 23.0809 22.3214 24.179 15.8668 24.179H13.6254H13.6303Z" fill="var(--fill-0, #7C7C7C)"/>
</svg>
