<svg preserveAspectRatio="none" width="100%" height="100%" overflow="visible" style="display: block;" viewBox="0 0 14.9605 16.9112" fill="none" xmlns="http://www.w3.org/2000/svg">
<path id="Vector" d="M14.7406 9.50113C15.0338 8.832 15.0338 8.07086 14.7406 7.40173C14.4067 6.6406 13.4213 6.05511 11.4423 4.88414L6.02656 1.68068C4.04757 0.509709 3.06214 -0.0757792 2.24774 0.00786189C1.53922 0.0831389 0.89584 0.467888 0.480496 1.05338C1.45626e-07 1.73087 0 2.90184 0 5.24379V11.6674C0 14.0094 1.45626e-07 15.1804 0.480496 15.8578C0.89584 16.4517 1.53922 16.8281 2.24774 16.9034C3.054 16.987 4.04757 16.4015 6.02656 15.2305L11.4423 12.0187C13.4132 10.8477 14.4067 10.2623 14.7406 9.50113Z" fill="var(--fill-0, #D9D9D9)"/>
</svg>
