<svg preserveAspectRatio="none" width="100%" height="100%" overflow="visible" style="display: block;" viewBox="0 0 9.01 10.1848" fill="none" xmlns="http://www.w3.org/2000/svg">
<path id="Vector" d="M8.87757 5.72206C9.05414 5.31908 9.05414 4.86069 8.87757 4.4577C8.67647 3.99931 8.083 3.6467 6.89115 2.94148L3.6295 1.01219C2.43765 0.306972 1.84418 -0.0456381 1.35371 0.00473483C0.926995 0.0500705 0.539521 0.281786 0.289379 0.634396C8.77035e-08 1.04242 0 1.74764 0 3.15808V7.02672C0 8.43716 8.77035e-08 9.14238 0.289379 9.55041C0.539521 9.90805 0.926995 10.1347 1.35371 10.1801C1.83928 10.2304 2.43765 9.87783 3.6295 9.17261L6.89115 7.23829C8.0781 6.53307 8.67647 6.18046 8.87757 5.72206Z" fill="var(--fill-0, #7C7C7C)"/>
</svg>
