<svg preserveAspectRatio="none" width="100%" height="100%" overflow="visible" style="display: block;" viewBox="0 0 35 35" fill="none" xmlns="http://www.w3.org/2000/svg">
<path id="Vector" d="M17.5 0C7.83173 0 0 7.83876 0 17.5C0 27.1612 7.83173 35 17.5 35C27.1683 35 35 27.1683 35 17.5C35 7.83172 27.1612 0 17.5 0ZM25.8454 11.3782C25.7961 12.0889 25.388 14.5657 24.9869 17.2467C24.3818 21.0394 23.7203 25.184 23.7203 25.184C23.7203 25.184 23.6218 26.345 22.7563 26.5491C21.8979 26.7531 20.4835 25.8384 20.2302 25.6413C20.0261 25.4865 16.4375 23.2137 15.1216 22.1019C14.7698 21.7994 14.3617 21.1942 15.1709 20.4835C16.9934 18.8158 19.1677 16.74 20.4835 15.4242C21.0887 14.8191 21.6938 13.4047 19.1677 15.1216C15.579 17.5985 12.0396 19.9276 12.0396 19.9276C12.0396 19.9276 11.2304 20.4343 9.71049 19.9769C8.19059 19.5195 6.42441 18.9144 6.42441 18.9144C6.42441 18.9144 5.21411 18.1544 7.28287 17.3452C7.28287 17.3452 16.0294 13.7565 19.0692 12.4899C20.2302 11.9833 24.1777 10.3649 24.1777 10.3649C24.1777 10.3649 26.0002 9.6542 25.8454 11.3782Z" fill="var(--fill-0, #D9D9D9)"/>
</svg>
