<svg preserveAspectRatio="none" width="100%" height="100%" overflow="visible" style="display: block;" viewBox="0 0 858.46 858.96" fill="none" xmlns="http://www.w3.org/2000/svg">
<g id="Group 1709">
<path id="Vector" d="M429.23 858.46C666.011 858.46 857.96 666.511 857.96 429.73C857.96 192.949 666.011 1.00022 429.23 1.00022C192.449 1.00022 0.5 192.949 0.5 429.73C0.5 666.511 192.449 858.46 429.23 858.46Z" stroke="var(--stroke-0, #7C7C7C)" stroke-miterlimit="10"/>
<path id="Vector_2" d="M429.231 792.365C629.509 792.365 791.866 630.008 791.866 429.73C791.866 229.452 629.509 67.095 429.231 67.095C228.953 67.095 66.5956 229.452 66.5956 429.73C66.5956 630.008 228.953 792.365 429.231 792.365Z" stroke="var(--stroke-0, #7C7C7C)" stroke-miterlimit="10"/>
<path id="Vector_3" d="M429.229 678.1C566.4 678.1 677.599 566.901 677.599 429.73C677.599 292.559 566.4 181.36 429.229 181.36C292.058 181.36 180.859 292.559 180.859 429.73C180.859 566.901 292.058 678.1 429.229 678.1Z" stroke="var(--stroke-0, #7C7C7C)" stroke-miterlimit="10"/>
<path id="Vector_4" d="M429.23 596.953C521.585 596.953 596.454 522.085 596.454 429.73C596.454 337.375 521.585 262.506 429.23 262.506C336.875 262.506 262.007 337.375 262.007 429.73C262.007 522.085 336.875 596.953 429.23 596.953Z" stroke="var(--stroke-0, #7C7C7C)" stroke-miterlimit="10"/>
<path id="Vector_5" d="M534.732 432.547C536.268 374.292 490.288 325.823 432.033 324.287C373.778 322.751 325.309 368.731 323.773 426.986C322.237 485.241 368.217 533.711 426.472 535.246C484.727 536.782 533.197 490.802 534.732 432.547Z" stroke="var(--stroke-0, #7C7C7C)" stroke-miterlimit="10"/>
<path id="Vector_6" d="M416.623 324.317L439.324 386.84" stroke="var(--stroke-0, #7C7C7C)" stroke-miterlimit="10"/>
<path id="Vector_7" d="M417.607 472.413L440.294 534.922" stroke="var(--stroke-0, #7C7C7C)" stroke-miterlimit="10"/>
<path id="Vector_8" d="M323.688 441.223L385.745 418.691" stroke="var(--stroke-0, #7C7C7C)" stroke-miterlimit="10"/>
<path id="Vector_9" d="M471.253 440.485L533.763 417.785" stroke="var(--stroke-0, #7C7C7C)" stroke-miterlimit="10"/>
<path id="Vector_10" d="M346.466 363.919L405.896 391.693" stroke="var(--stroke-0, #7C7C7C)" stroke-miterlimit="10"/>
<path id="Vector_11" d="M451.036 467.56L511.294 495.708" stroke="var(--stroke-0, #7C7C7C)" stroke-miterlimit="10"/>
<path id="Vector_12" d="M362.669 511.821L390.534 452.197" stroke="var(--stroke-0, #7C7C7C)" stroke-miterlimit="10"/>
<path id="Vector_13" d="M466.4 407.017L494.51 346.863" stroke="var(--stroke-0, #7C7C7C)" stroke-miterlimit="10"/>
<path id="Vector_14" d="M473.111 430.922C473.75 406.7 454.631 386.547 430.409 385.908C406.187 385.27 386.033 404.388 385.395 428.61C384.756 452.832 403.875 472.986 428.097 473.625C452.319 474.263 472.473 455.145 473.111 430.922Z" stroke="var(--stroke-0, #7C7C7C)" stroke-miterlimit="10"/>
<path id="Vector_15" d="M569.349 304.926C569.94 282.526 552.259 263.888 529.859 263.298C507.459 262.707 488.822 280.387 488.231 302.788C487.641 325.188 505.321 343.825 527.721 344.416C550.121 345.006 568.759 327.326 569.349 304.926Z" fill="var(--fill-0, #262626)" stroke="var(--stroke-0, #7C7C7C)" stroke-miterlimit="10"/>
<path id="Vector_16" d="M481.564 531.769C482.029 514.142 468.116 499.476 450.489 499.011C432.861 498.546 418.195 512.459 417.73 530.087C417.266 547.714 431.179 562.38 448.806 562.845C466.433 563.31 481.099 549.397 481.564 531.769Z" fill="var(--fill-0, #262626)" stroke="var(--stroke-0, #7C7C7C)" stroke-miterlimit="10"/>
<path id="Vector_17" d="M203.69 479.417C203.939 469.986 196.494 462.138 187.063 461.89C177.631 461.641 169.783 469.085 169.535 478.517C169.286 487.949 176.731 495.796 186.162 496.045C195.594 496.293 203.441 488.849 203.69 479.417Z" fill="var(--fill-0, #262626)" stroke="var(--stroke-0, #7C7C7C)" stroke-miterlimit="10"/>
<path id="Vector_18" d="M685.506 695.402C685.665 689.379 680.911 684.367 674.888 684.209C668.864 684.05 663.853 688.804 663.694 694.827C663.535 700.851 668.289 705.862 674.313 706.021C680.336 706.18 685.348 701.426 685.506 695.402Z" fill="var(--fill-0, #262626)" stroke="var(--stroke-0, #7C7C7C)" stroke-miterlimit="10"/>
<path id="Vector_19" d="M332.476 21.2874C332.77 10.1195 323.955 0.827439 312.787 0.533046C301.619 0.238653 292.327 9.05341 292.033 20.2213C291.739 31.3893 300.553 40.6813 311.721 40.9757C322.889 41.2701 332.181 32.4554 332.476 21.2874Z" fill="var(--fill-0, #262626)" stroke="var(--stroke-0, #7C7C7C)" stroke-miterlimit="10"/>
<path id="Vector_20" d="M424.775 406.331C425.125 393.048 414.641 381.996 401.358 381.646C388.075 381.296 377.023 391.78 376.673 405.063C376.323 418.346 386.807 429.398 400.09 429.748C413.373 430.098 424.425 419.614 424.775 406.331Z" fill="var(--fill-0, #262626)" stroke="var(--stroke-0, #7C7C7C)" stroke-miterlimit="10"/>
</g>
</svg>
